<svg width="45" height="44" viewBox="0 0 45 44" fill="none" xmlns="http://www.w3.org/2000/svg">
<path fill-rule="evenodd" clip-rule="evenodd" d="M22.5 41.8C33.4352 41.8 42.3 32.9352 42.3 22C42.3 11.0648 33.4352 2.2 22.5 2.2C11.5648 2.2 2.7 11.0648 2.7 22C2.7 32.9352 11.5648 41.8 22.5 41.8ZM22.5 44C34.6503 44 44.5 34.1503 44.5 22C44.5 9.84974 34.6503 0 22.5 0C10.3497 0 0.5 9.84974 0.5 22C0.5 34.1503 10.3497 44 22.5 44Z" fill="#D2D2D7"/>
<path fill-rule="evenodd" clip-rule="evenodd" d="M22.5 34.1C29.1827 34.1 34.6 28.6827 34.6 22C34.6 15.3174 29.1827 9.90001 22.5 9.90001C15.8174 9.90001 10.4 15.3174 10.4 22C10.4 28.6827 15.8174 34.1 22.5 34.1ZM22.5 36.3C30.3977 36.3 36.8 29.8977 36.8 22C36.8 14.1023 30.3977 7.70001 22.5 7.70001C14.6023 7.70001 8.20001 14.1023 8.20001 22C8.20001 29.8977 14.6023 36.3 22.5 36.3Z" fill="#D2D2D7"/>
<path fill-rule="evenodd" clip-rule="evenodd" d="M22.5 27.5C25.5376 27.5 28 25.0376 28 22C28 18.9624 25.5376 16.5 22.5 16.5C19.4624 16.5 17 18.9624 17 22C17 25.0376 19.4624 27.5 22.5 27.5ZM22.5 29.7C26.7526 29.7 30.2 26.2526 30.2 22C30.2 17.7474 26.7526 14.3 22.5 14.3C18.2474 14.3 14.8 17.7474 14.8 22C14.8 26.2526 18.2474 29.7 22.5 29.7Z" fill="#D2D2D7"/>
</svg>
