<svg width="23" height="23" viewBox="0 0 23 23" fill="none" xmlns="http://www.w3.org/2000/svg">
<path d="M14.6978 4.26073C14.6723 4.01889 14.7131 3.76714 14.8294 3.53348C15.1535 2.88201 15.9419 2.61794 16.5903 2.94368L18.1789 3.74185L20.1612 0.754046C20.5633 0.148 21.3782 -0.015765 21.9813 0.388265C22.5845 0.792295 22.7475 1.61112 22.3454 2.21717L20.5451 4.93064L21.8403 5.58136C22.4886 5.9071 22.7514 6.69929 22.4272 7.35077C22.3368 7.53245 22.2103 7.684 22.0608 7.80103C22.3757 9.19771 22.3013 10.8543 21.831 12.557C20.7445 16.4914 17.8345 19.847 13.7934 21.2005C9.37723 22.6797 5.65151 22.0557 2.72776 20.0972C1.64727 19.3733 0.914117 18.6367 0.515801 18.103C-0.169864 17.1844 0.559295 15.8851 1.6964 15.9994C6.42436 16.4745 8.52856 14.8678 10.454 10.7109C10.5816 10.4356 10.7082 10.1527 10.8759 9.77106C10.924 9.66146 10.9797 9.53415 11.0835 9.297C11.1677 9.10495 11.2304 8.96246 11.2922 8.82336C12.3239 6.50221 13.3503 4.97802 14.6978 4.26073Z" fill="#FF6633"/>
</svg>
