<svg width="260" height="59" viewBox="0 0 260 59" fill="none" xmlns="http://www.w3.org/2000/svg">
<path fill-rule="evenodd" clip-rule="evenodd" d="M55.6091 20.5267C54.8694 18.7616 54.0478 16.801 50.6202 18.0015V8.47701C50.6202 3.55871 42.4834 0 32.5704 0C22.6573 0 14.5205 3.55871 14.5205 8.47701V50.523C14.5205 55.4413 22.6573 59 32.5704 59C42.4834 59 50.6202 55.4413 50.6202 50.523V25.1486C53.6778 25.5587 54.3375 28.0082 53.7665 30.5416L56.9128 31.0503C57.6186 26.4045 56.0679 23.3147 50.6202 23.0728V21.1353C52.7134 20.1078 53.9932 21.7873 55.3054 23.5093C56.3815 24.9213 57.4794 26.362 59.0655 26.362C61.3838 26.362 63.2054 25.1753 64.5301 22.8017L61.715 18.9023C61.163 21.5019 59.8383 22.8017 57.7407 22.8017C56.5625 22.8017 56.1042 21.708 55.6091 20.5267ZM37.3822 31.635C35.7775 31.2369 34.1278 30.8276 32.5039 30.8276C30.854 30.8276 29.187 31.2454 27.5715 31.6503L27.5715 31.6503C23.3535 32.7074 19.4862 33.6767 17.1877 26.8929C14.3841 18.6176 20.7842 20.4413 26.6196 22.104L26.6196 22.104C28.8839 22.7492 31.0632 23.3702 32.5867 23.3675C34.0509 23.365 36.1533 22.7833 38.3516 22.1751C44.1368 20.5744 50.5866 18.7899 47.8204 26.8929C45.5127 33.6521 41.6032 32.6822 37.3822 31.635ZM24.4486 25.5014C23.7377 25.1693 23.034 24.8644 22.3698 24.6436C22.2771 25.8416 22.7843 26.956 23.9157 28.0419C24.9033 28.9899 25.8339 29.1005 26.8319 28.2814C27.1608 27.9121 27.4457 27.4953 27.6867 27.031C27.2807 26.8577 26.858 26.6608 26.4264 26.454C26.4375 26.5249 26.4434 26.5976 26.4434 26.6717C26.4434 27.4208 25.8502 28.0281 25.1186 28.0281C24.387 28.0281 23.7938 27.4208 23.7938 26.6717C23.7938 26.1729 24.0568 25.737 24.4486 25.5014ZM18.4948 25.824C18.9223 24.511 19.8697 24.1678 21.0693 24.3263C20.867 26.0151 21.5232 27.6047 23.0096 29.0314C23.438 29.4426 23.8713 29.7437 24.3063 29.937C23.6112 30.1815 22.8332 30.3363 21.9723 30.4016C25.338 31.0477 27.7518 30.1036 29.2135 27.5693C30.6175 27.9154 31.5768 27.5773 31.5768 25.6545C31.088 27.6562 28.8622 26.2818 26.3766 24.747C22.9674 22.6419 19.0694 20.235 18.4948 25.824ZM38.7051 26.4263C38.2695 26.6554 37.8424 26.8701 37.4303 27.05C37.6722 27.5178 37.9587 27.9375 38.2896 28.3092C39.2876 29.1284 40.2183 29.0177 41.2059 28.0698C42.3904 26.9328 42.8907 25.7647 42.7347 24.502C42.0198 24.7198 41.2744 25.0685 40.5282 25.4541C40.9986 25.6623 41.3277 26.1416 41.3277 26.6996C41.3277 27.4487 40.7346 28.0559 40.003 28.0559C39.2713 28.0559 38.6782 27.4487 38.6782 26.6996C38.6782 26.606 38.6875 26.5145 38.7051 26.4263ZM33.8627 26.6996C34.363 27.4508 35.058 27.6518 35.8736 27.5368C37.3317 30.1165 39.757 31.0807 43.1493 30.4295C42.2884 30.3642 41.5103 30.2093 40.8152 29.9649C41.2503 29.7715 41.6835 29.4705 42.1119 29.0593C43.6231 27.6088 44.2761 25.9901 44.0414 24.2699C45.0526 24.2462 45.9495 24.663 46.6267 25.8519C45.9827 19.7788 42.2951 22.2382 38.8544 24.5329C36.9161 25.8257 35.0561 27.0661 33.8627 26.6996ZM33.2003 24.1565C33.2003 25.1018 33.6971 25.8519 34.5251 26.0214C33.6971 26.191 32.7035 25.5128 33.2003 24.1565ZM48.3018 8.47701C48.3018 11.7985 41.313 14.9195 32.5704 14.9195C23.8277 14.9195 16.8389 11.7985 16.8389 8.47701C16.8389 5.15547 23.8277 2.03448 32.5704 2.03448C41.313 2.03448 48.3018 5.15547 48.3018 8.47701Z" fill="#1D1D1F"/>
<ellipse cx="32.5703" cy="8.47674" rx="7.78295" ry="3.3908" fill="#FF6633"/>
<path fill-rule="evenodd" clip-rule="evenodd" d="M93.7527 39.3359H92.9997C92.9997 39.1626 92.7448 38.985 92.2356 38.8037C90.9652 37.3841 90.33 33.6957 90.33 27.7379C90.2515 27.7379 90.2128 27.5609 90.2128 27.2057C90.2128 27.1151 90.2515 27.0695 90.33 27.0695L90.2128 26.4015V25.2003C90.2128 25.1177 90.2515 25.0769 90.33 25.0769C90.2515 24.9036 90.2128 24.7674 90.2128 24.6681L90.33 21.4749H90.4595C90.4595 21.3842 90.4167 21.3386 90.33 21.3386C90.4396 20.1342 90.5263 19.4244 90.589 19.2093C90.589 19.1186 90.5456 19.0736 90.4595 19.0736C90.4595 18.9824 90.5028 18.8504 90.589 18.6776C90.6751 16.4335 90.7179 14.655 90.7179 13.3427C90.7179 11.8904 90.5497 10.0213 90.2128 7.73584C90.5808 7.02606 90.9611 6.6709 91.3531 6.6709C91.8395 6.6709 92.1336 6.89408 92.2356 7.33937C92.8549 7.48852 93.4035 7.93381 93.8821 8.67685C93.8821 8.91559 93.9683 9.17954 94.1406 9.46871L94.3878 9.34478H94.5173C94.682 10.5578 94.764 11.222 94.764 11.3373H95.023V11.0777C95.3834 11.0777 95.595 11.6962 95.6577 12.9345C95.7754 12.9345 95.9442 13.5573 96.1634 14.8031C96.25 14.8031 96.2929 14.8487 96.2929 14.9393C96.2929 15.03 96.25 15.0756 96.1634 15.0756L96.5401 17.8729C96.454 18.352 96.4106 18.7517 96.4106 19.0736V20.5339C96.4106 20.7405 96.3714 20.9223 96.2929 21.079C96.3714 21.2437 96.4106 21.3757 96.4106 21.4749C96.1048 24.7588 95.854 26.4015 95.6577 26.4015L95.7872 27.342V29.7428C95.7872 29.9408 95.7443 30.1184 95.6577 30.275C95.7443 30.4322 95.7872 30.6093 95.7872 30.8078V30.9435C95.7872 31.1173 95.701 31.2037 95.5287 31.2037C95.5287 31.113 95.4854 31.0674 95.3992 31.0674V31.2037L95.6577 31.5996V31.8722L95.1525 36.1421L94.5173 37.2065C94.2349 37.2065 93.98 37.3385 93.7527 37.603C93.7527 37.6931 93.7955 37.7387 93.8821 37.7387L93.7527 39.0762V39.3359ZM102.457 44.0545C106.501 45.5717 109.281 46.3722 110.797 46.4543C110.797 46.4543 115.061 47.4404 117.04 46.2499C120.609 44.1039 119.694 29.5569 119.694 29.5569L119.972 25.3985C120.012 22.4698 119.747 19.3329 119.178 15.9889L119.121 15.8338C118.78 14.9008 117.814 12.2656 117.923 11.6948C118.107 11.2796 118.271 11.0864 118.417 11.1176L118.786 11.1954C118.819 11.0258 118.877 10.9496 118.962 10.9673L119.585 11.0999L119.61 10.9663L120.449 11.2823L120.426 11.4041C120.18 11.3515 120.04 11.4142 120.006 11.5929L120.285 11.513L120.401 11.5371L120.375 11.6707L120.059 12.0081C120.034 12.1374 120.132 12.2925 120.354 12.4744L120.607 12.528C120.652 12.293 120.808 12.1455 121.076 12.0843L121.099 11.9631L121.595 12.0677C121.569 12.205 122.024 12.7523 122.961 13.7078C123.7 14.6557 124.386 16.0249 125.019 17.8173C125.63 20.4799 125.877 22.1189 125.759 22.7337L125.633 22.7064C125.782 24.186 125.881 25.928 125.93 27.9334C125.813 28.0858 125.745 28.2097 125.726 28.3074C125.98 28.3605 126.046 29.1448 125.925 30.6599L125.749 30.8874L125.594 34.4019C125.308 35.0152 125.154 35.3864 125.129 35.5157L125.105 36.3317L125.22 36.3559L125.499 36.2759L125.448 36.5431L125.273 36.7711C125.357 36.7888 125.391 36.8425 125.375 36.9315C125.29 36.9138 125.239 36.9487 125.222 37.0377L125.469 37.0906C126.54 35.4925 127.313 34.2042 127.79 33.2256C127.79 33.0357 128.045 32.7266 128.555 32.2974L130.448 27.903C130.362 27.8542 130.319 27.5403 130.319 26.9625C130.914 25.6342 131.295 24.97 131.459 24.97C132.079 23.5504 133.094 20.5262 134.506 15.8974L135.646 13.1001C135.56 12.9262 135.517 12.7943 135.517 12.7036C135.831 12.7036 136.293 12.3034 136.905 11.5029H137.422L137.54 12.0351H137.669C137.842 12.0351 137.928 11.9445 137.928 11.7626L139.187 11.8989H139.445C139.445 12.1634 139.528 12.2953 139.692 12.2953H139.822C139.822 12.0308 139.908 11.8989 140.081 11.8989H140.21C140.374 11.9235 140.457 12.0142 140.457 12.1714L140.715 12.0351H140.833V12.5673H141.092C141.257 12.5673 141.339 12.4767 141.339 12.2953V12.1714L141.221 11.8989L141.856 11.7626H142.104L141.974 12.0351V12.4316C142.146 12.4316 142.232 12.6086 142.232 12.9638H143.244C143.244 13.0545 143.201 13.1001 143.115 13.1001C143.154 13.5454 143.283 13.768 143.503 13.768V14.5599C143.55 15.5095 143.801 16.1774 144.256 16.5653C144.256 16.6066 144.385 17.0524 144.644 17.9022L144.891 17.766H145.02L145.526 19.7708C145.776 19.7708 145.902 20.0348 145.902 20.5632C145.816 20.5632 145.773 20.6088 145.773 20.6995L146.031 20.8358V20.6995C145.945 20.6995 145.902 20.6544 145.902 20.5632H146.29C146.298 21.0665 146.549 22.0445 147.043 23.4973C146.957 23.9839 146.914 24.3385 146.914 24.5612L147.172 24.6975C147.172 24.6068 147.216 24.5612 147.302 24.5612C147.302 24.7431 147.553 25.3203 148.055 26.2941C150.666 26.0301 152.23 25.8981 152.747 25.8981V26.1707H152.488L152.618 26.8268L150.089 27.631L150.207 27.903C150.207 28.3242 149.831 28.5881 149.078 28.6954V28.8317H149.325V29.1042L149.078 29.5002V29.7598C149.752 32.0126 150.301 34.0137 150.724 35.7632C150.724 35.9037 150.807 36.0808 150.971 36.2954V36.4317C150.971 36.5223 150.928 36.5674 150.842 36.5674L151.983 40.0337C151.904 40.0337 151.865 40.0787 151.865 40.1694C152.226 40.1694 152.602 41.5434 152.994 44.2913C152.712 44.2913 152.504 44.5139 152.371 44.9592H151.606C151.606 45.2318 151.395 45.368 150.971 45.368C150.673 45.0628 149.913 44.7039 148.69 44.2913C148.69 44.1513 148.058 43.8868 146.796 43.4994C146.796 43.4002 146.541 43.177 146.031 42.831V42.5584L146.914 42.6947H147.302C147.466 42.6947 147.548 42.6083 147.548 42.4345C147.548 42.1539 146.749 39.9752 145.149 35.8995C145.149 35.3544 144.726 33.9767 143.879 31.7652C142.256 32.3017 140.484 32.702 138.563 32.9659C138.563 32.8747 138.52 32.8296 138.434 32.8296C138.434 33.0936 138.179 33.2706 137.669 33.3618C136.234 33.7084 135.517 34.1993 135.517 34.8345C134.984 36.6173 134.478 37.8587 134 38.5605V38.9687C134.251 38.9687 134.376 39.0556 134.376 39.2289V39.3652L134.129 39.2289H133.871C133.62 39.9221 133.494 40.3674 133.494 40.5653L133.235 40.4296C133.235 40.6608 132.981 40.9286 132.471 41.2338C132.471 41.3991 132.008 42.1995 131.083 43.6352L130.824 43.7591H130.577L130.072 43.3632H129.942C129.778 43.3878 129.696 43.4785 129.696 43.6352C129.774 43.7999 129.813 43.9318 129.813 44.0311L129.566 44.1674C129.456 44.0767 129.244 44.0311 128.931 44.0311C128.931 44.2951 128.762 44.427 128.425 44.427L126.391 42.9672C125.87 42.9672 125.363 42.3256 124.87 41.0427C124.827 41.6242 124.694 42.5046 124.468 43.6838L124.269 44.7268C124.153 45.3341 124.014 45.62 123.853 45.5862L123.73 46.9232L123.581 47.7C123.127 49.1528 122.571 50.0327 121.913 50.339C121.738 50.4823 121.424 50.5912 120.976 50.6679C120.957 50.6738 120.942 50.6813 120.922 50.6878C120.734 50.8505 120.718 50.9025 120.7 50.9619C120.684 51.0136 120.667 51.0709 120.533 51.2114C120.436 51.2559 120.214 51.279 119.871 51.2822V51.2854C119.663 51.382 119.399 51.4056 119.078 51.3557C118.694 51.8305 118.398 52.1164 118.19 52.2125L116.937 52.198C115.797 52.3385 114.377 52.3648 112.679 52.2768C111.372 51.61 109.824 51.1148 108.035 50.7892C107.145 50.0745 106.353 49.7156 105.657 49.7129C105.49 49.3127 104.3 48.4533 102.087 47.134C101.349 46.7005 100.904 46.5181 100.753 46.5884C100.196 45.972 99.8098 45.7134 99.5941 45.8132L99.3907 45.326C101.502 46.1968 102.637 46.5954 102.795 46.5219L102.743 46.3979L101.683 45.8604L101.635 45.7472L101.754 45.6925C101.776 45.7456 102.448 46.0219 103.772 46.5229C105.094 47.0235 106.211 47.2751 107.12 47.2778C107.857 47.4237 108.33 47.4479 108.538 47.3513L108.656 47.2966C108.786 47.237 108.828 47.1227 108.783 46.9543C105.672 46.1313 104.02 45.4859 103.823 45.0181L103.649 45.2472C103.413 45.3572 103.176 45.1286 102.939 44.5621L102.713 44.6667L102.812 44.9044L102.694 44.9596C102.555 44.6275 102.38 44.3206 102.168 44.0401L102.405 43.9306L102.457 44.0545ZM125.309 37.3296L125.314 37.3224C125.309 37.3217 125.305 37.3209 125.3 37.3199C125.303 37.3226 125.306 37.3258 125.309 37.3296ZM80.2937 41.3844C80.2937 42.003 81.0543 42.3576 82.5755 42.4483C84.0967 42.3742 84.8572 42.0647 84.8572 41.5207C86.1194 39.6467 86.7506 38.1783 86.7506 37.1139C87.3465 33.4083 87.7268 30.6529 87.8914 28.8455V28.7215L87.3862 28.9812V28.7215L87.5152 28.0536C87.4291 28.0536 87.3862 28.008 87.3862 27.9173H87.5152C87.5152 23.7005 87.684 20.6763 88.0209 18.8441V18.7202H87.7742C87.7742 19.0759 87.6447 19.2529 87.3862 19.2529C87.3862 19.3436 87.4291 19.4756 87.5152 19.6489L87.3862 20.9858C87.3862 21.0765 87.4291 21.2085 87.5152 21.3818C87.5152 21.4971 87.3465 21.8973 87.0095 22.5824H86.88C86.88 21.6913 86.7546 21.2455 86.5038 21.2455C86.5038 21.0722 86.6292 20.9858 86.88 20.9858V20.0448C86.88 19.4675 86.9234 18.5807 87.0095 17.3838H86.7506C86.7506 17.5818 86.7118 17.7588 86.6333 17.916L86.7506 18.188C86.5313 18.2213 86.3626 18.4402 86.2449 18.8441L86.3743 19.3892C86.3743 19.4718 86.3315 19.5126 86.2449 19.5126C86.2449 19.8425 86.2882 20.0652 86.3743 20.1811C86.2882 20.1811 86.1628 20.4944 85.9981 21.1221C86.0843 21.2702 86.1276 21.4477 86.1276 21.6538V21.7782L85.8686 22.186L85.9981 22.4462H85.8686C85.8686 22.7434 85.912 22.9666 85.9981 23.1146C85.9431 23.6264 85.8177 24.0261 85.6219 24.3153L85.7397 24.5873H85.6219C85.6219 25.2971 85.4491 25.6517 85.104 25.6517V25.788L85.2335 26.5804C84.8103 27.3808 84.5983 28.2263 84.5983 29.1175H84.3515C84.3515 29.0268 84.3944 28.9812 84.481 28.9812C84.481 28.7585 84.4377 28.4039 84.3515 27.9173L84.5983 27.5214L84.481 27.2488C84.6457 27.2488 84.7278 27.0262 84.7278 26.5804L84.5983 26.3202C84.6849 26.3202 84.8144 26.0975 84.9867 25.6517C84.9006 25.4951 84.8572 25.3175 84.8572 25.1195C84.8572 25.0042 84.9398 24.5133 85.104 23.6468V23.2509L84.9867 22.4462L85.104 22.186L84.9867 21.5175L85.2335 20.8495C85.1473 20.6929 85.104 20.5153 85.104 20.3173L85.3629 19.9214H85.104L85.4924 16.9879L85.3629 16.7153C85.9431 15.6016 86.7037 14.8467 87.6447 14.4502V14.1782C87.6447 13.9717 87.2644 13.7947 86.5038 13.6455C85.7198 14.1654 85.1279 14.8794 84.7278 15.7872V16.0469H84.9867V16.1831H84.7278L84.8572 16.4557C84.8572 16.835 84.7711 17.1901 84.5983 17.5201L84.7278 17.7803C84.5865 18.7374 84.4183 19.3146 84.2221 19.5126L84.3515 19.7851C84.2654 19.7851 84.2221 19.8307 84.2221 19.9214V20.0448H84.3515V21.5175C84.3515 21.782 84.4341 21.914 84.5983 21.914C84.4652 22.1125 84.3398 22.5121 84.2221 23.1146C84.2221 25.1608 84.0533 26.1844 83.7164 26.1844V26.4441H83.9636C83.9636 26.5353 83.9243 26.5804 83.8458 26.5804L83.9636 27.2488C83.8769 27.2488 83.7515 27.2939 83.5869 27.3851C83.673 27.9956 83.7597 28.3959 83.8458 28.5853C83.6812 28.6765 83.5517 28.7215 83.4574 28.7215V30.0461C83.2932 30.0461 83.2107 30.2237 83.2107 30.5783H83.0812C82.9165 30.5783 82.7911 30.2688 82.705 29.6502C82.8696 29.0804 82.995 28.2805 83.0812 27.2488C82.995 27.0922 82.9517 26.9146 82.9517 26.7166C82.9517 26.0895 83.0384 25.5986 83.2107 25.244C83.1245 25.0787 83.0812 24.9468 83.0812 24.8475C82.8069 24.8475 82.5954 25.9162 82.4465 28.0536C82.5327 28.0536 82.5755 28.0944 82.5755 28.177C81.901 33.1696 81.141 36.1482 80.2937 37.1139C80.1372 36.3129 79.9685 35.9127 79.788 35.9127C78.3647 30.4209 75.926 25.6467 74.0205 21.9165L74.0205 21.9165C73.0918 20.0982 72.2897 18.5281 71.7937 17.2438C71.2844 16.5994 71.0295 16.1992 71.0295 16.0426H70.7823V16.1788L70.9001 16.4514C70.6803 16.1788 70.3434 16.0426 69.8887 16.0426V15.9192H70.1471V15.6466C69.4727 15.6466 69.1357 15.4691 69.1357 15.1144L68.7799 15.1273C68.2625 15.5726 67.8822 15.7952 67.639 15.7952C67.639 15.3666 67.3846 14.9658 66.8749 14.5951C66.6235 14.7271 66.4981 14.8591 66.4981 14.991C66.4043 14.991 66.2749 14.9454 66.1102 14.8548C65.969 14.8548 65.8869 14.9454 65.8635 15.1273L65.9924 15.3875C65.9063 15.3875 65.8635 15.4326 65.8635 15.5232L65.6045 15.3875H65.4872C65.3379 15.3875 65.2517 15.4782 65.2283 15.659V15.7952L65.4872 16.7239C66.3024 16.7239 67.2312 19.5249 68.2742 25.1286H68.1447C68.2314 25.9865 68.3563 26.6507 68.5214 27.1212H68.392C68.392 27.4178 68.4348 27.6405 68.5214 27.7896L68.392 28.4581C68.4781 29.2333 68.5214 29.6792 68.5214 29.7945C68.4348 30.4217 68.392 30.7768 68.392 30.8589C68.5643 31.5687 68.6509 32.3901 68.6509 33.322C68.6509 34.1144 68.5643 35.4266 68.392 37.2582C68.392 39.0163 68.733 40.2164 69.4151 40.8602V40.5877L69.2856 40.3157C69.3723 40.3157 69.4151 40.2744 69.4151 40.1918V40.0555H69.1566V39.9198C69.2428 39.9198 69.3682 39.8742 69.5328 39.7835C69.9565 40.6167 70.168 41.3307 70.168 41.9246C71.0148 42.0732 71.4379 42.4279 71.4379 42.9896H71.5674C71.5674 42.717 71.6066 42.4075 71.6851 42.0609H71.9441C71.9441 42.944 72.1985 43.3855 72.7082 43.3855L74.0959 42.8533C74.0097 42.2176 73.9669 41.8629 73.9669 41.7889C73.9669 41.5244 74.053 41.3924 74.2253 41.3924L74.0959 40.724V39.7835L73.9669 39.5238H74.0959C74.0959 39.3747 74.053 38.8425 73.9669 37.9267L73.7196 38.0506C73.8843 37.3408 73.9669 36.8993 73.9669 36.726V35.9218L73.8491 35.6493C73.9276 35.6493 73.9669 35.5833 73.9669 35.4513C73.9669 34.5763 73.9276 33.801 73.8491 33.124C73.9011 32.8 74.0658 32.8423 74.3426 33.2517C75.6756 36.594 76.7304 38.504 77.5068 38.9825C78.1807 39.4037 78.5182 39.8033 78.5182 40.1832C79.1921 40.7857 79.5296 41.1403 79.5296 41.2481C79.6157 41.2481 79.6585 41.2025 79.6585 41.1119C79.8706 41.2932 80.0822 41.3844 80.2937 41.3844ZM113.457 42.7568C113.424 42.5814 113.215 42.5031 112.829 42.5224C112.864 42.7123 112.514 42.9054 111.78 43.1034C111.434 42.6812 111.031 42.3963 110.571 42.2488C110.55 42.1393 110.414 42.046 110.162 41.9687L110.058 41.9907L110.103 42.2316C109.463 41.7412 109.133 41.4419 109.113 41.3324C107.603 39.0786 106.747 37.415 106.547 36.3404C106.256 35.1708 105.939 34.0903 105.596 33.0983L105.667 32.8446L105.041 30.7651L105.156 30.7415L104.996 30.5242L104.599 28.397L104.276 27.2457L103.818 27.3407C103.853 27.5306 103.777 27.9523 103.589 28.6063L103.818 28.5591C103.76 29.4893 103.752 30.0639 103.794 30.2833C103.863 30.2689 103.905 30.3016 103.92 30.3826C103.677 30.4325 103.631 31.0151 103.781 32.13L104.006 32.6986C103.967 33.1466 103.877 33.4916 103.734 33.7341C103.749 33.814 103.795 33.8467 103.872 33.8306C103.929 34.9879 103.912 35.7271 103.821 36.0501C103.917 36.1821 103.974 36.2915 103.99 36.379C103.767 36.8811 103.635 38.0507 103.596 39.8877C103.521 40.7235 103.445 41.149 103.368 41.1645L103.036 41.2332C102.871 42.1704 102.616 42.6753 102.268 42.7466C102.099 42.4553 101.958 42.3212 101.847 42.3443L101.618 42.3915L101.076 42.6179C101.01 42.267 100.63 42.1028 99.9346 42.1248L99.9387 41.5095C99.8648 41.1146 99.6792 40.9483 99.3805 41.01L99.2469 40.2975C99.175 39.9097 98.9512 39.7551 98.5766 39.8329C98.2437 38.0496 98.2931 34.9728 98.7249 30.6026C98.7101 30.5216 98.6642 30.4899 98.5878 30.5055L98.5857 29.2763L98.8376 29.3498L98.7045 28.6368C98.9609 28.5837 99.0445 28.1985 98.9538 27.4807L98.8004 26.6588C98.9737 26.6228 99.0338 26.3256 98.9803 25.7677L98.7861 25.3068C98.8116 25.059 98.8631 24.927 98.939 24.9104C98.9242 24.8304 98.8783 24.7977 98.8019 24.8138C98.757 24.1475 98.7693 23.5756 98.8391 23.0981C98.7341 22.9607 98.6734 22.8481 98.6566 22.7606C98.7891 22.6571 98.8931 22.5975 98.9696 22.582C98.8564 22.4006 98.7096 22.0208 98.5302 21.443C98.627 21.4226 98.732 21.1544 98.8447 20.6377C98.7397 20.5004 98.68 20.3915 98.6648 20.3105L98.7795 20.2869L98.6199 20.0696C98.6974 17.974 98.6153 15.6601 98.3737 13.1295C98.6158 12.9203 98.9003 12.7818 99.2265 12.7142L99.5599 12.645C99.6364 12.6295 99.6823 12.6617 99.6971 12.7421L99.904 12.5742C100.737 12.9031 101.212 13.3779 101.327 13.9991L101.534 13.8312L101.867 13.762L101.89 13.8833L101.828 14.1343L102.943 13.9042L104.316 14.3602L104.463 14.5694L104.13 14.6381L104.152 14.7583C104.459 15.5528 104.919 16.357 105.533 17.172C106.5 18.6033 107.153 20.2257 107.491 22.0385L107.799 23.6941C108.029 23.6464 108.483 24.8202 109.16 27.2151L109.271 27.8074C109.286 27.8874 109.255 27.9356 109.178 27.9512L109.336 28.1583C109.404 28.5236 109.366 29.1465 109.22 30.0264C109.614 30.4765 109.873 31.0339 109.997 31.6992L110.042 31.94L110.261 31.895C110.414 31.8633 110.506 31.3129 110.537 30.2442L110.652 30.2206L110.492 30.0028L110.426 29.6519C110.731 29.0043 110.806 27.1068 110.651 23.9581C110.781 23.5745 110.872 22.8234 110.923 21.7048C111.269 20.0841 111.617 19.0293 111.966 18.54L112.081 18.5164L112.125 18.7578L112.054 19.0111L112.305 19.0846L112.42 19.061L112.398 18.9403L112.168 18.9875L112.24 18.7342L112.218 18.613C112.202 18.5331 112.157 18.5003 112.081 18.5164C112.131 18.3614 112.14 18.1967 112.107 18.0218L112.326 17.9762L112.332 18.5894C112.575 18.539 112.778 17.966 112.942 16.8694L112.919 16.7487L113.16 16.8243L113.138 16.7036C113.061 16.7197 113.015 16.687 113 16.607C113.118 16.5824 113.257 16.4745 113.416 16.2819C113.429 16.3549 113.471 16.3844 113.541 16.3699C113.892 15.3178 114.29 14.7459 114.735 14.6542L114.85 14.6306L114.937 15.1022L114.148 16.4949L113.907 16.4193L113.563 16.4906L113.585 16.6113L114.034 16.5185L114.078 16.7599C113.641 17.3131 113.431 17.6414 113.451 17.7433C113.2 18.9113 112.909 21.5068 112.578 25.5295L112.601 25.6502L112.705 25.6287C113 24.8165 113.153 23.7601 113.163 22.4597L113.531 20.6645L113.655 20.6387C113.669 20.3087 113.735 20.1316 113.854 20.1072L113.968 20.083C114.005 20.2804 114.119 20.4623 114.308 20.6281L114.336 20.7796C114.388 20.7481 114.433 20.7284 114.471 20.7203L114.494 20.8411C114.381 21.4714 114.295 22.2638 114.234 23.2172L114.349 23.1936C114.523 23.1582 114.631 22.4827 114.674 21.1683C115.125 21.075 115.403 20.281 115.506 18.7874L115.736 18.7396C115.767 18.9081 115.713 19.4505 115.574 20.3673C115.762 20.3282 115.902 20.4623 115.995 20.7697L115.992 21.3856C116.111 21.6034 116.21 21.7048 116.286 21.6887L116.349 23.8846C116.395 24.1255 116.528 24.2231 116.751 24.1775L116.771 24.287C116.826 27.0917 116.733 30.3402 116.492 34.034C116.243 35.4063 115.758 37.3887 115.038 39.9815C114.483 41.569 114.168 42.3706 114.091 42.3867L113.457 42.7568ZM113.86 21.2112L113.797 20.8737C113.837 20.8737 113.877 20.8768 113.918 20.8831L113.975 21.1876L113.86 21.2112ZM113.832 19.7889L113.947 19.7653C113.903 19.532 113.954 19.4 114.1 19.3694L114.032 19.0078L113.928 19.0293C113.974 19.2702 113.881 19.415 113.652 19.4622C113.757 19.6001 113.817 19.709 113.832 19.7889ZM82.9407 24.6238H83.0702C83.0702 24.2612 83.0273 23.906 82.9407 23.5594L83.0702 22.891V22.7676H82.8234C82.8234 23.0069 82.7368 23.2708 82.5645 23.5594L82.6939 23.832C82.6078 23.832 82.5645 23.877 82.5645 23.9683V24.2279C82.698 24.4919 82.8234 24.6238 82.9407 24.6238ZM134.544 21.3945C134.725 21.3532 134.893 21.1306 135.05 20.726C134.971 20.5694 134.933 20.3918 134.933 20.1938C135.128 20.1938 135.509 19.4385 136.073 17.9288L135.944 17.6562V17.52C136.406 16.9674 136.657 16.2125 136.696 15.2549H136.191V15.5274H136.45C135.179 18.358 134.544 20.3135 134.544 21.3945ZM111.709 34.9293C111.71 35.3617 111.633 35.7834 111.48 36.1948C111.348 36.2222 111.257 36.161 111.207 36.0119L111.097 35.4201L111.212 35.3965L111.71 33.0843C111.696 33.0043 111.635 32.8954 111.53 32.7575C111.649 32.7328 111.783 32.6218 111.933 32.4238L111.956 32.544L111.803 32.9405L111.848 33.1814L112.066 33.1363L112.001 32.7849L112.116 32.7618L112.246 33.463C112.034 34.4105 111.854 34.8992 111.709 34.9293ZM138.125 28.7502C138.556 28.7502 139.952 28.3956 142.312 27.6858V27.5501C142.312 27.3596 141.72 25.4497 140.536 21.8187V21.6953C140.136 22.2479 139.713 23.2254 139.266 24.6289C139.077 25.858 138.74 27.0543 138.255 28.218H138.125V28.7502ZM149.468 35.3574V35.4936C149.217 35.4936 148.837 34.47 148.327 32.4238C148.664 32.4238 148.832 32.7371 148.832 33.3648H149.091L149.338 33.2286C149.338 33.3192 149.381 33.3648 149.468 33.3648L149.338 34.0328C149.425 34.8085 149.468 35.2501 149.468 35.3574ZM112.155 29.8556C112.099 29.5557 112.206 29.0857 112.476 28.4457C112.527 28.2981 112.529 28.0926 112.48 27.8298L112.437 27.5996L112.322 27.6232C112.225 27.6436 112.105 28.2375 111.962 29.4054L111.619 29.4768L111.706 29.9478L111.821 29.9242L111.879 29.881C111.874 30.1409 111.788 30.6919 111.619 31.5339L111.637 32.27L111.658 32.38L111.772 32.3558C111.941 30.7501 112.02 29.9175 112.009 29.859L111.997 29.7925L112.03 29.7676C112.043 29.84 112.085 29.8695 112.155 29.8556Z" fill="#1D1D1F"/>
<path fill-rule="evenodd" clip-rule="evenodd" d="M175.541 43.1215L172.991 42.8542L172.743 42.9878C171.704 42.7211 170.94 42.3286 170.452 41.8109C169.35 40.8796 168.799 40.184 168.799 39.7226C168.799 39.6421 168.712 39.2901 168.539 38.6666V38.5456L168.669 38.2783C168.559 38.2783 168.307 37.9305 167.913 37.2344V36.8456C167.913 36.7566 168.208 36.4936 168.799 36.0563L168.669 35.4013C170.157 34.2685 171.176 33.7018 171.727 33.7018V33.8355C171.727 34.1832 171.428 34.8793 170.83 35.9232V36.0563C171.011 36.0563 171.479 36.1863 172.235 36.4452L174.396 36.19V36.3236C174.963 36.2347 175.514 36.1011 176.05 35.9232L176.935 36.0563C178.163 35.8548 179.69 35.0693 181.517 33.7018C182.037 33.2567 182.544 32.5606 183.04 31.6141C183.465 31.1526 183.678 30.7154 183.678 30.3029C178.962 29.259 176.419 28.6034 176.05 28.3367C176.05 28.514 175.963 28.6034 175.79 28.6034C172.806 27.8668 171.07 27.1712 170.582 26.5157C170.22 26.5157 169.582 26.079 168.669 25.2045C168.448 25.1803 167.984 24.6136 167.275 23.505C167.071 23.505 166.858 23.202 166.638 22.5943C166.299 22.5943 166.13 22.1576 166.13 21.2836C166.13 19.8272 166.551 18.5603 167.393 17.4843C167.905 16.594 168.499 15.8537 169.177 15.2629C169.578 14.8504 169.834 14.4168 169.944 13.9638C171.243 13.001 172.007 12.5195 172.235 12.5195C174.148 12.7216 175.545 13.0694 176.427 13.5629C178.379 14.6315 179.356 15.6349 179.356 16.5735V17.6179H179.096V17.751L179.226 18.0183L178.588 18.1399C178.312 18.1399 177.679 17.7921 176.687 17.0955C175.222 17.7105 174.333 18.1478 174.018 18.4072C173.947 18.8197 173.396 19.3416 172.365 19.9725C172.365 20.1182 171.94 20.5554 171.09 21.2836C170.578 22.0765 170.322 22.5543 170.322 22.7163C172.022 23.5008 174.821 24.2858 178.718 25.0714C182.245 25.9453 184.406 26.8192 185.201 27.6932C187.752 28.9959 189.027 29.9956 189.027 30.6912H188.767C188.767 30.4644 188.303 30.0319 187.374 29.3921H187.114V29.5137C187.5 30.5823 188.094 31.2821 188.897 31.6141C188.897 31.7272 189.11 32.1197 189.535 32.7911C189.362 32.8158 189.275 32.9005 189.275 33.0462L189.405 34.2238C189.405 34.8878 188.897 35.4092 187.882 35.7901C187.882 36.0732 187.5 36.5099 186.736 37.1008C186.736 37.538 186.055 38.1488 184.694 38.9339C184.694 39.1033 184.142 39.6257 183.04 40.4997C182.788 40.6049 182.662 40.7386 182.662 40.9001H182.533L182.284 40.767C182.284 41.3978 181.478 42.0092 179.864 42.5996C179.864 42.3328 179.777 42.1991 179.604 42.1991C179.328 42.5953 178.864 42.8584 178.211 42.9878L177.443 42.8542H177.195C177.006 42.8542 176.837 42.8989 176.687 42.9878L176.427 42.8542C176.277 42.9437 176.108 42.9878 175.92 42.9878L175.671 42.8542L175.541 43.1215ZM200.091 41.681H199.831C198.957 41.681 198.363 41.5516 198.048 41.2927L197.54 41.4264C197.406 41.4264 197.154 41.2522 196.784 40.9039L196.524 41.0254C195.934 40.8876 195.383 40.3656 194.871 39.4591L194.612 39.5927H194.363C192.584 38.0879 191.695 37.0846 191.695 36.5826C190.254 33.5236 189.534 30.0357 189.534 26.1191C189.471 26.1191 189.341 24.8563 189.144 22.3318H189.274C189.101 21.8862 189.014 21.5831 189.014 21.4211C189.077 20.8949 189.163 20.6318 189.274 20.6318L188.506 16.8446C188.663 16.8446 188.793 16.4521 188.896 15.6671C189.234 15.6671 189.404 15.5782 189.404 15.4003V15.2667H189.534L189.911 15.534C190.092 15.534 190.344 15.2709 190.667 14.7448C190.761 14.7448 190.891 14.7 191.057 14.6111V14.8784L191.695 14.7448C191.695 15.012 191.734 15.1452 191.813 15.1452C191.931 15.0562 192.143 15.012 192.45 15.012C192.45 15.2136 192.706 15.343 193.218 15.4003V15.534L193.088 15.7886C193.261 15.7886 193.348 15.8776 193.348 16.0554H193.466C193.553 16.0554 193.895 15.9665 194.493 15.7886H194.871V16.711L194.612 17.0993L195.001 17.3666L194.612 19.3212C194.643 19.499 194.729 19.588 194.871 19.588C194.785 20.6076 194.742 21.3485 194.742 21.8094V21.943L194.871 23.2416H194.742L194.871 23.5088V23.6425C194.871 25.0426 194.997 27.5676 195.249 31.2169H195.119C195.206 31.4195 195.379 32.1193 195.639 33.3173L195.509 33.9729C195.674 34.256 195.757 34.5149 195.757 34.7495L195.639 35.0168C196.056 35.0168 196.265 35.4535 196.265 36.3274C196.406 36.3274 196.58 36.5863 196.784 37.1046C197.201 37.1046 198.217 36.0602 199.831 33.9729C200.767 32.3461 201.701 29.5538 202.63 25.5971V23.7635L202.5 22.8533H202.63L202.5 22.5981C202.5 22.3966 202.543 22.2182 202.63 22.0646C202.378 18.6493 202.252 16.6021 202.252 15.9223C202.558 15.5014 202.941 15.153 203.397 14.8784V14.4896H203.645V14.7448H204.023C204.456 14.1376 204.838 13.834 205.168 13.834L205.298 14.0892L205.558 13.9676H205.806V14.3559H205.936L206.574 14.2228L207.341 14.7448V15.1452H207.849V14.8784C208.015 14.9673 208.141 15.012 208.227 15.012C208.392 14.9226 208.518 14.8784 208.605 14.8784C209.203 15.4445 209.502 16.1406 209.502 16.9656C209.416 16.9656 209.372 17.0104 209.372 17.0993C209.538 17.1319 209.62 17.2208 209.62 17.3666C209.368 17.5691 209.243 17.8722 209.243 18.2773H209.113L208.865 17.4881C208.691 17.5202 208.605 17.6091 208.605 17.7549V19.588C208.605 20.4135 208.561 21.4169 208.475 22.5981L208.605 23.2416C208.078 26.7699 207.57 29.1255 207.082 30.3067C206.995 30.3067 206.952 30.3514 206.952 30.4403V31.6179L207.082 32.9169C206.743 32.9169 206.574 33.2689 206.574 33.9729H206.444C206.444 34.256 206.613 35.2146 206.952 36.8494H206.822L206.952 37.1046V37.7601C206.952 37.9543 206.909 38.1285 206.822 38.2821C206.909 38.452 206.952 38.5815 206.952 38.6704C206.763 38.6704 206.55 38.2374 206.314 37.3718H206.196C206.196 37.4524 206.153 37.4929 206.066 37.4929C206.231 38.4157 206.444 39.3339 206.704 40.2483C206.617 40.4188 206.574 40.5482 206.574 40.6371C206.44 40.6371 206.144 39.7222 205.688 37.8938H205.558L205.428 38.1484V38.2821H205.688V39.0708H205.936C205.936 39.1602 205.893 39.2044 205.806 39.2044L205.936 39.4591V39.8479L205.688 39.7264C205.688 39.8074 205.645 39.8479 205.558 39.8479C205.298 39.3297 204.999 38.371 204.661 36.9709H204.413C204.295 36.9709 204.126 37.3634 203.905 38.1484C203.74 38.1484 203.314 38.6299 202.63 39.5927L202.76 39.8479C202.531 40.1389 201.937 40.4019 200.976 40.6371C200.386 41.1391 200.091 41.4869 200.091 41.681ZM207.602 43.775H207.224C207.137 43.1357 207.051 42.7432 206.964 42.5974C207.051 42.4522 207.094 42.2339 207.094 41.9424H207.354V42.4638L207.224 42.719C207.39 42.8079 207.515 42.8521 207.602 42.8521V42.9857L207.354 43.3746C207.519 43.4067 207.602 43.4961 207.602 43.6413V43.775ZM237.401 46.4935L236.893 46.2388C236.727 46.3199 236.597 46.3604 236.503 46.3604L235.995 46.2388C235.83 46.3199 235.704 46.3604 235.617 46.3604C235.617 46.1341 235.318 45.96 234.72 45.8384C234.531 45.3281 234.192 44.8956 233.704 44.5394C233.2 43.6007 232.819 42.2937 232.559 40.6185L232.689 40.3512C232.602 40.1813 232.559 40.0518 232.559 39.9629H232.689C232.539 39.6798 232.37 38.4581 232.181 36.2967H232.311C232.154 35.7711 231.728 31.676 231.035 24.0127C230.949 24.0127 230.823 23.3129 230.658 21.9128C230.658 21.8239 230.701 21.6939 230.788 21.524C230.788 20.6179 230.276 19.614 229.253 18.5139C229.253 18.4565 229.04 17.8456 228.615 16.6802C228.709 16.2919 229.008 15.9889 229.512 15.7705H229.642V16.0252C230.24 15.8552 230.579 15.7705 230.658 15.7705H230.788V16.5592H231.035L230.906 16.8139V16.9475C231.079 16.9475 231.165 16.9922 231.165 17.0811L232.181 16.4256H232.311V16.5592C232.224 16.7207 232.181 16.8502 232.181 16.9475C232.268 16.9475 232.311 16.9922 232.311 17.0811C232.476 16.9922 232.602 16.9475 232.689 16.9475C233.429 16.9964 234.192 17.692 234.98 19.0358C234.98 19.6104 235.275 20.4843 235.866 21.6576C236.463 27.2495 236.763 30.3007 236.763 30.8105H236.893C238.821 30.5432 240.262 30.4096 241.215 30.4096H241.723C242.486 30.4096 242.868 29.9324 242.868 28.9774H242.998L242.868 28.7101V28.5891C243.293 28.5891 243.718 25.9705 244.144 20.7347C243.97 20.7347 243.884 20.65 243.884 20.4801V19.6909C244.34 19.6909 244.679 19.5614 244.899 19.3026H245.159L245.277 19.9581C245.198 19.9581 245.159 19.9987 245.159 20.0792L245.407 20.2128C245.407 20.1239 245.45 20.0792 245.537 20.0792L245.407 19.8245V19.6909C245.966 19.6909 246.305 19.4283 246.422 18.9022H246.682C246.682 18.999 246.726 19.1326 246.812 19.3026L247.06 19.1694H247.19C247.19 19.4604 247.233 19.6788 247.32 19.8245L247.568 19.6909C247.741 19.7156 247.828 19.8045 247.828 19.9581V20.0792H247.568V20.2128H247.958L248.076 19.9581C247.997 19.7877 247.958 19.6551 247.958 19.5577H248.206C248.717 20.0186 248.973 20.4112 248.973 20.7347H249.351L249.611 20.6011L249.481 20.3464C249.505 20.1686 249.588 20.0792 249.729 20.0792C250.359 20.0792 250.701 20.2128 250.757 20.4801V20.7347C250.757 20.9131 250.627 21.002 250.367 21.002C250.705 21.9086 250.874 22.4747 250.874 22.7015C250.457 24.4336 250.249 26.6103 250.249 29.2326L250.497 29.3662C250.497 29.2768 250.54 29.2326 250.627 29.2326C250.627 29.4104 250.67 29.4988 250.757 29.4988L251.264 29.2326V29.3662C251.264 29.6251 250.925 29.7987 250.249 29.8876V30.6769H251.134L252.788 30.288C252.788 30.3696 252.831 30.4096 252.917 30.4096C252.917 30.2402 253.256 30.1107 253.933 30.0213V30.1549C253.933 30.2681 253.382 30.5716 252.28 31.0652C252.28 31.413 251.516 31.8055 249.989 32.2427V32.5095L250.627 32.3763C250.713 32.3763 250.757 32.4205 250.757 32.5095C250.922 32.4205 251.048 32.3763 251.134 32.3763H251.394V32.5095C250.371 32.6389 249.859 32.813 249.859 33.0314C249.859 33.2908 249.815 33.4202 249.729 33.4202L249.859 33.687C249.693 34.4236 249.611 34.8566 249.611 34.986L249.729 35.7753C249.729 36.5766 249.477 38.5791 248.973 41.7839H248.713V41.5293H248.596V43.2282H248.206L247.698 42.8399C247.698 42.9856 247.485 43.3781 247.06 44.0174C247.06 44.9482 246.808 45.4701 246.305 45.5838C246.305 45.8426 245.879 45.9721 245.029 45.9721H244.899C244.899 45.7132 244.773 45.5838 244.521 45.5838H244.391V44.5394C244.391 44.3373 244.348 44.1632 244.261 44.0174C244.261 43.9285 244.305 43.8838 244.391 43.8838C244.391 43.7059 244.348 43.6165 244.261 43.6165C244.458 40.3065 244.628 38.6523 244.77 38.6523L244.651 38.385C244.817 37.7857 244.899 37.2643 244.899 36.8192V35.7753L245.029 35.1197C244.824 34.9497 244.655 34.865 244.521 34.865C243.269 35.1239 242.419 35.338 241.97 35.508V36.2967C241.75 36.2967 241.455 36.7781 241.085 37.7415L239.939 40.3512C239.774 40.4401 239.648 40.4848 239.562 40.4848V41.5293C239.562 41.7392 239.349 42.1317 238.924 42.7063C238.924 43.224 238.837 43.4834 238.664 43.4834L238.794 43.7501C238.117 44.4946 237.778 44.9319 237.778 45.0618V45.7169L237.908 45.9721C237.625 45.9721 237.455 46.1457 237.401 46.4935ZM243.509 29.2412C243.91 27.9226 244.205 27.2223 244.394 27.1413C244.308 26.7935 244.182 26.4899 244.016 26.2311L244.264 25.8428H244.146C244.005 25.8428 243.831 26.1464 243.626 26.753L243.756 27.4086C243.717 27.7564 243.591 27.9305 243.379 27.9305V28.0637L243.509 28.3194H243.249V28.9744C243.28 29.1528 243.367 29.2412 243.509 29.2412ZM246.685 39.9622C246.89 39.9622 247.016 39.5244 247.063 38.6505C246.984 38.481 246.945 38.3516 246.945 38.2622H247.193V37.7407C247.193 37.5624 247.11 37.4735 246.945 37.4735L247.063 36.8179V35.5188C247.063 35.4299 247.106 35.3852 247.193 35.3852L247.063 35.1184C247.063 35.0295 247.106 34.8995 247.193 34.7301L246.945 33.5526C247.023 33.5526 247.063 33.5079 247.063 33.4189H246.815V34.3418C246.815 34.536 246.771 34.7096 246.685 34.8632C246.685 34.9527 246.729 34.9969 246.815 34.9969L246.685 35.6404V35.9071L246.815 36.8179H246.685L246.815 37.0852V37.3398C246.815 37.5177 246.729 37.6071 246.555 37.6071C246.729 37.8902 246.815 38.1532 246.815 38.3958V39.0393L246.685 39.9622ZM245.791 41.1314C245.957 40.4758 246.039 40.0833 246.039 39.9539C246.039 39.865 245.996 39.8202 245.909 39.8202L246.039 39.1647V37.7325L245.909 36.154H246.039L245.909 35.8988V34.9886C245.909 34.8997 245.953 34.855 246.039 34.855C245.953 34.7418 245.909 34.434 245.909 33.9326C245.744 33.9652 245.661 34.0542 245.661 34.1999V35.1101C245.661 35.6121 245.618 35.9199 245.531 36.0325C245.618 36.5023 245.661 36.8943 245.661 37.2105V41.1314H245.791ZM240.064 37.854C240.064 37.5709 240.36 36.9638 240.95 36.033L241.588 34.7224V34.4551H241.458C240.97 35.0138 240.588 35.7136 240.313 36.5555C240.257 36.5555 240.088 36.7738 239.805 37.2111V37.854H240.064ZM237.138 39.9614C237.643 39.3942 238.575 37.9541 239.937 35.6396C239.937 35.5586 239.981 35.518 240.067 35.518V35.9063H240.315C240.315 35.5422 240.402 35.1055 240.575 34.5957H240.445V34.7293C240.358 34.7293 240.315 34.6846 240.315 34.5957C238.922 35.1213 238.119 35.3844 237.906 35.3844C237.331 35.1255 236.993 34.9961 236.891 34.9961V35.3844C236.891 35.5786 236.93 35.7527 237.008 35.9063C237.008 35.9953 236.969 36.04 236.891 36.04C236.969 36.4367 237.052 37.7437 237.138 39.9614ZM257.205 45.6026H256.449C256.449 45.4326 256.193 45.2585 255.681 45.0806C254.406 43.6884 253.769 40.0712 253.769 34.2283C253.69 34.2283 253.65 34.0546 253.65 33.7063C253.65 33.6174 253.69 33.5727 253.769 33.5727L253.65 32.9176V31.7396C253.65 31.6591 253.69 31.6185 253.769 31.6185C253.69 31.4486 253.65 31.315 253.65 31.2176L253.769 28.086H253.898C253.898 27.9971 253.855 27.9523 253.769 27.9523C253.879 26.7711 253.965 26.075 254.028 25.8646C254.028 25.7751 253.985 25.7309 253.898 25.7309C253.898 25.642 253.942 25.512 254.028 25.3426C254.115 23.1417 254.158 21.3976 254.158 20.1106C254.158 18.6863 253.989 16.8532 253.65 14.6118C254.02 13.9157 254.402 13.5674 254.796 13.5674C255.284 13.5674 255.579 13.7863 255.681 14.223C256.303 14.3692 256.854 14.8059 257.335 15.5347C257.335 15.7688 257.422 16.0277 257.595 16.3113L257.842 16.1897H257.972C258.138 17.3793 258.221 18.0312 258.221 18.1444H258.48V17.8892C258.842 17.8892 259.055 18.4958 259.118 19.7102C259.236 19.7102 259.405 20.321 259.626 21.5428C259.712 21.5428 259.756 21.5875 259.756 21.6764C259.756 21.7653 259.712 21.8101 259.626 21.8101L260.003 24.5534C259.917 25.0233 259.874 25.4152 259.874 25.7309V27.1631C259.874 27.3657 259.834 27.544 259.756 27.6977C259.834 27.8592 259.874 27.9886 259.874 28.086C259.567 31.3065 259.315 32.9176 259.118 32.9176L259.248 33.84V36.1945C259.248 36.3886 259.204 36.5628 259.118 36.7164C259.204 36.8706 259.248 37.0442 259.248 37.2389V37.372C259.248 37.5425 259.161 37.6272 258.988 37.6272C258.988 37.5383 258.945 37.4935 258.858 37.4935V37.6272L259.118 38.0155V38.2828L258.61 42.4709L257.972 43.5143C257.689 43.5143 257.433 43.6437 257.205 43.9031C257.205 43.992 257.248 44.0362 257.335 44.0362L257.205 45.3479V45.6026ZM216.174 18.7683C217.352 18.3179 218.458 17.9412 219.492 17.6387H219.605V17.8597C219.235 17.8812 219.051 17.9586 219.051 18.0927C218.386 18.1348 218.054 18.2864 218.054 18.5468H217.725C217.478 18.5468 217.222 18.6594 216.955 18.8846H216.174V18.7683ZM228.825 36.0365H228.938C228.938 35.8744 228.829 35.6456 228.609 35.3499V35.0121L228.712 34.7795L228.055 33.6393C226.835 32.3713 225.431 31.2343 223.842 30.2278C222.302 29.2912 221.527 28.7593 221.52 28.633C220.911 28.3652 219.287 27.3445 216.65 25.5703C215.205 24.7321 214.212 23.8593 213.671 22.9506C213.705 22.6481 213.815 22.4965 213.999 22.4965C213.999 21.9899 216.257 21.1691 218.175 20.3593C219.284 20.0494 219.839 19.7853 219.839 19.5669C221.75 18.9124 222.818 18.4936 223.045 18.3105C224.154 18.0569 224.709 17.8669 224.709 17.7401C224.874 17.7401 225.021 18.0079 225.151 18.543L225.038 18.7645C225.038 18.9198 225.147 18.9966 225.366 18.9966V19.1129C225.147 19.1129 225.038 19.226 225.038 19.4512C225.113 19.8311 225.336 20.3241 225.706 20.9297H226.034L225.921 20.6976H226.25C226.572 19.7116 226.832 19.2186 227.031 19.2186V18.9966C227.031 18.6235 227.14 18.2437 227.36 17.8559C227.284 17.7228 227.247 17.5707 227.247 17.4023C227.213 17.1419 226.624 16.6489 225.48 15.9239L223.6 15.3535H223.486C222.98 15.3535 222.428 15.4693 221.833 15.7018C219.757 16.1522 218.428 16.6063 217.846 17.0646L217.62 16.9483H217.404C217.028 17.2508 216.548 17.4408 215.966 17.5186L212.092 19.3349C210.496 20.1799 209.609 21.0533 209.431 21.9541C209.431 22.0667 209.616 22.5597 209.986 23.4326L209.873 23.6651C209.873 23.7288 210.02 24.0666 210.315 24.679C210.315 24.8832 210.5 25.112 210.87 25.3656C210.87 25.584 211.202 26.0381 211.866 26.7278C212.695 27.2419 213.322 27.7349 213.747 28.2063C214.486 28.34 214.856 28.5304 214.856 28.7767C216.308 29.5938 217.12 30.1252 217.291 30.372C219.161 31.4348 221.079 32.6844 223.045 34.1213C224.298 34.7827 224.925 35.2404 224.925 35.494C224.165 36.1201 221.915 36.6137 218.175 36.9725C218.175 36.8952 218.137 36.8562 218.061 36.8562C217.931 36.9336 217.784 36.9725 217.62 36.9725H213.305C212.127 36.9725 211.538 37.4266 211.538 38.3347V38.673C211.819 38.673 212.003 38.9408 212.092 39.4754L212.75 39.93C213.065 40.1547 213.287 40.2678 213.418 40.2678C213.836 40.5703 214.13 40.7213 214.301 40.7213C214.301 41.1091 215.004 41.3769 216.408 41.5248V41.63L216.295 41.862C216.897 41.862 217.267 41.9362 217.404 42.0841H217.733L218.401 41.9783L218.616 42.0841C219.678 41.9925 220.599 41.8804 221.38 41.7463C221.38 41.8236 221.418 41.862 221.493 41.862C222.953 41.6795 224.428 41.299 225.921 40.7213C226.394 40.6093 226.802 40.1163 227.144 39.2434H227.914L228.141 38.451V38.1027C228.141 37.9264 229.052 36.5363 228.825 36.0365Z" fill="#1D1D1F"/>
</svg>
