<svg width="67" height="28" viewBox="0 0 67 28" fill="none" xmlns="http://www.w3.org/2000/svg">
<path fill-rule="evenodd" clip-rule="evenodd" d="M26.6734 9.74149C26.3147 8.90382 25.9162 7.97337 24.2539 8.54307V4.02299C24.2539 1.68888 20.3077 0 15.5 0C10.6923 0 6.74609 1.68888 6.74609 4.02299V23.977C6.74609 26.3111 10.6923 28 15.5 28C20.3077 28 24.2539 26.3111 24.2539 23.977V11.9349C25.7368 12.1295 26.0567 13.292 25.7798 14.4943L27.3057 14.7357C27.648 12.531 26.8959 11.0646 24.2539 10.9498V10.0303C25.269 9.54269 25.8897 10.3397 26.5262 11.1569C27.048 11.8271 27.5805 12.5108 28.3497 12.5108C29.4741 12.5108 30.3575 11.9476 31 10.8211L29.6347 8.97057C29.367 10.2043 28.7245 10.8211 27.7072 10.8211C27.1358 10.8211 26.9135 10.3021 26.6734 9.74149ZM17.8336 15.0132C17.0554 14.8243 16.2553 14.6301 15.4678 14.6301C14.6676 14.6301 13.8591 14.8283 13.0756 15.0205C11.03 15.5222 9.15435 15.9822 8.03964 12.7628C6.67993 8.83547 9.78388 9.70094 12.614 10.49C13.7121 10.7962 14.769 11.0909 15.5079 11.0897C16.218 11.0885 17.2376 10.8124 18.3038 10.5238C21.1095 9.76413 24.2376 8.91722 22.896 12.7628C21.7768 15.9705 19.8808 15.5102 17.8336 15.0132ZM11.561 12.1024C11.2163 11.9448 10.875 11.8 10.5529 11.6952C10.5079 12.2638 10.7539 12.7927 11.3026 13.308C11.7816 13.7579 12.2329 13.8104 12.7169 13.4217C12.8764 13.2464 13.0146 13.0486 13.1315 12.8283C12.9346 12.746 12.7296 12.6526 12.5202 12.5544C12.5257 12.5881 12.5285 12.6226 12.5285 12.6578C12.5285 13.0133 12.2408 13.3015 11.886 13.3015C11.5312 13.3015 11.2435 13.0133 11.2435 12.6578C11.2435 12.4211 11.371 12.2142 11.561 12.1024ZM8.67356 12.2555C8.88088 11.6323 9.34034 11.4695 9.92216 11.5447C9.82405 12.3461 10.1423 13.1005 10.8632 13.7776C11.0709 13.9728 11.2811 14.1157 11.4921 14.2074C11.1549 14.3234 10.7776 14.3969 10.3601 14.4279C11.9924 14.7345 13.163 14.2865 13.872 13.0837C14.5529 13.248 15.0181 13.0875 15.0181 12.175C14.7811 13.125 13.7016 12.4727 12.4961 11.7443C10.8427 10.7453 8.95224 9.60307 8.67356 12.2555ZM18.4752 12.5413C18.264 12.65 18.0568 12.7519 17.857 12.8373C17.9743 13.0593 18.1132 13.2585 18.2737 13.4349C18.7578 13.8236 19.2091 13.7711 19.6881 13.3213C20.2626 12.7817 20.5052 12.2273 20.4295 11.6281C20.0828 11.7314 19.7213 11.8969 19.3594 12.0799C19.5875 12.1787 19.7472 12.4062 19.7472 12.671C19.7472 13.0265 19.4595 13.3147 19.1047 13.3147C18.7498 13.3147 18.4622 13.0265 18.4622 12.671C18.4622 12.6266 18.4667 12.5832 18.4752 12.5413ZM16.1267 12.671C16.3694 13.0275 16.7065 13.1229 17.102 13.0683C17.8092 14.2926 18.9854 14.7502 20.6306 14.4411C20.2131 14.4101 19.8357 14.3366 19.4986 14.2206C19.7096 14.1289 19.9197 13.986 20.1275 13.7908C20.8604 13.1025 21.1771 12.3343 21.0633 11.5179C21.5537 11.5067 21.9887 11.7045 22.3171 12.2687C22.0048 9.38655 20.2164 10.5537 18.5476 11.6428C17.6076 12.2562 16.7055 12.8449 16.1267 12.671ZM15.8055 11.4641C15.8055 11.9127 16.0464 12.2687 16.448 12.3492C16.0464 12.4296 15.5646 12.1078 15.8055 11.4641ZM23.1295 4.02299C23.1295 5.59931 19.7401 7.08046 15.5 7.08046C11.2599 7.08046 7.87045 5.59931 7.87045 4.02299C7.87045 2.44667 11.2599 0.965517 15.5 0.965517C19.7401 0.965517 23.1295 2.44667 23.1295 4.02299Z" fill="#1D1D1F"/>
<ellipse cx="15.5" cy="4.02298" rx="3.77461" ry="1.6092" fill="#FF6633"/>
<path d="M46.0248 2.6658C46.3416 2.78656 46.5221 2.96089 46.5661 3.189L46.6446 3.12734L46.7714 3.10193L46.7801 3.14645L46.7567 3.23864L47.1807 3.15413L47.7026 3.32157L47.7586 3.3984L47.6318 3.42361L47.6403 3.46774C47.7571 3.75948 47.9321 4.05476 48.1655 4.35399C48.5333 4.87955 48.7815 5.47524 48.91 6.14087L49.0275 6.74877C49.1148 6.73124 49.2873 7.16225 49.545 8.0416L49.587 8.25908C49.5929 8.28843 49.581 8.30616 49.552 8.31187L49.6121 8.38791C49.6378 8.52205 49.6233 8.75076 49.5677 9.07382C49.7175 9.23909 49.8162 9.44376 49.8633 9.68803L49.8806 9.77647L49.9635 9.75993C50.0217 9.7483 50.0568 9.5462 50.0686 9.1538L50.1123 9.14513L50.0516 9.06515L50.0266 8.93632C50.1425 8.69856 50.171 8.00181 50.1121 6.84569C50.1615 6.70484 50.196 6.42906 50.2154 6.01834C50.3472 5.42324 50.4794 5.03596 50.6121 4.85631L50.6557 4.84764C50.6749 4.79071 50.6782 4.73023 50.6658 4.66602L50.7489 4.64927L50.7513 4.87443C50.8437 4.85591 50.9209 4.64553 50.9831 4.24289L50.9744 4.19856L51.0663 4.22634L51.0578 4.18202C51.0287 4.18793 51.0112 4.17591 51.0054 4.14656C51.0504 4.1375 51.1031 4.0979 51.1634 4.02719C51.1687 4.05398 51.1846 4.06481 51.2109 4.05949C51.3447 3.6732 51.4961 3.46321 51.6652 3.42952L51.7088 3.42086L51.7422 3.59401L51.442 4.10539L51.3501 4.07761L51.2195 4.10381L51.228 4.14814L51.3984 4.11406L51.4155 4.2027C51.2491 4.4058 51.1695 4.52635 51.1768 4.56378C51.0814 4.99262 50.9707 5.94565 50.8449 7.42267L50.8534 7.46699L50.893 7.45911C51.0054 7.16087 51.0634 6.773 51.0673 6.2955L51.2073 5.63638L51.2546 5.62684C51.2601 5.50621 51.2852 5.44146 51.3304 5.4325L51.3738 5.42363C51.3878 5.49612 51.431 5.5629 51.5031 5.62377L51.5137 5.67859C51.5334 5.66704 51.5504 5.65982 51.565 5.65687L51.5737 5.70119C51.5304 5.93265 51.4977 6.2236 51.4748 6.57365L51.5184 6.56498C51.5845 6.55198 51.6256 6.30397 51.6421 5.82135C51.8137 5.78708 51.9192 5.49553 51.9585 4.94712L52.0458 4.92959C52.0576 4.99144 52.0372 5.1906 51.9843 5.52725C52.0557 5.51287 52.109 5.56211 52.1445 5.67499L52.1431 5.90113C52.1887 5.98111 52.2261 6.01834 52.2552 6.01243L52.2792 6.8187C52.2964 6.90715 52.3472 6.943 52.4318 6.92626L52.4395 6.96644C52.4603 7.99629 52.425 9.18906 52.3333 10.5453C52.2387 11.0492 52.0543 11.7771 51.7804 12.7291C51.5694 13.312 51.4494 13.6063 51.4203 13.6122L51.1791 13.7481C51.1667 13.6837 51.0871 13.655 50.9403 13.6621C50.9537 13.7318 50.8207 13.8027 50.5413 13.8754C50.4098 13.7204 50.2567 13.6158 50.0814 13.5616C50.0737 13.5214 50.0219 13.4871 49.9259 13.4588L49.8864 13.4668L49.9034 13.5553C49.6601 13.3752 49.5347 13.2653 49.5269 13.2251C48.9527 12.3976 48.6274 11.7867 48.5512 11.3922C48.4407 10.9627 48.3201 10.566 48.1894 10.2018L48.2165 10.1086L47.9785 9.34507L48.0221 9.3364L47.9614 9.25662L47.8104 8.47557L47.6875 8.05283L47.5132 8.0877C47.5267 8.15743 47.4976 8.31226 47.4261 8.55239L47.5132 8.53506C47.4914 8.87663 47.4883 9.08761 47.504 9.16818C47.5304 9.16286 47.5465 9.17487 47.5521 9.20462C47.4596 9.22294 47.4422 9.43687 47.4994 9.84621L47.5849 10.055C47.5702 10.2195 47.5356 10.3462 47.4816 10.4352C47.4872 10.4646 47.5046 10.4766 47.5337 10.4707C47.5554 10.8956 47.549 11.167 47.5143 11.2856C47.5512 11.3341 47.5725 11.3742 47.5789 11.4064C47.4938 11.5907 47.4438 12.0202 47.4288 12.6947C47.4003 13.0016 47.3714 13.1578 47.3424 13.1635L47.2158 13.1887C47.1533 13.5328 47.056 13.7182 46.924 13.7444C46.8594 13.6374 46.8061 13.5882 46.7638 13.5967L46.6766 13.614L46.4705 13.6971C46.4455 13.5683 46.3009 13.508 46.0364 13.5161L46.038 13.2901C46.0098 13.1452 45.9393 13.0841 45.8257 13.1068L45.7749 12.8451C45.7475 12.7027 45.6624 12.646 45.5199 12.6746C45.3933 12.0198 45.4121 10.89 45.5763 9.28538C45.5707 9.25564 45.5533 9.24401 45.5242 9.24973L45.5234 8.79843L45.6192 8.82542L45.5686 8.56362C45.6661 8.54412 45.6979 8.40268 45.6634 8.13911L45.605 7.83733C45.671 7.82413 45.6938 7.715 45.6735 7.51013L45.5996 7.34092C45.6093 7.24991 45.6289 7.20145 45.6578 7.19534C45.6521 7.16599 45.6347 7.15397 45.6056 7.15988C45.5886 6.91522 45.5932 6.70524 45.6198 6.52992C45.5798 6.47949 45.5568 6.43812 45.5504 6.40601C45.6008 6.36799 45.6403 6.34613 45.6694 6.34041C45.6264 6.27383 45.5705 6.13436 45.5023 5.92221C45.5391 5.91472 45.5791 5.81623 45.6219 5.62653C45.582 5.5761 45.5593 5.53611 45.5535 5.50637L45.5971 5.4977L45.5364 5.41792C45.5659 4.64848 45.5347 3.79888 45.4428 2.86968C45.5349 2.79286 45.643 2.74204 45.7671 2.71722L45.8939 2.6918C45.923 2.68609 45.9404 2.69791 45.9461 2.72746L46.0248 2.6658ZM51.3981 5.02966L51.4239 5.16243C51.3685 5.17365 51.3489 5.22211 51.3656 5.3078L51.322 5.31647C51.3163 5.28712 51.2935 5.24713 51.2535 5.19651C51.3408 5.17917 51.3759 5.12598 51.3586 5.03754L51.3981 5.02966ZM50.6557 4.84764L50.6727 4.93628L50.6456 5.02926L50.7412 5.05625L50.7848 5.04758L50.7763 5.00326L50.689 5.0206L50.7164 4.92762L50.7078 4.8831C50.702 4.85375 50.6848 4.84173 50.6557 4.84764Z" fill="#1D1D1F"/>
<path d="M53.2633 2.08078L53.5 2.12944L53.5097 2.08039L53.8289 2.19642L53.8201 2.24113C53.7265 2.22183 53.6734 2.24487 53.6604 2.31047L53.7666 2.28112L53.8104 2.28999L53.8008 2.33904L53.6804 2.46294C53.671 2.51041 53.7083 2.56734 53.7926 2.63412L53.889 2.65382C53.906 2.56754 53.9655 2.51337 54.0673 2.49091L54.0761 2.44639L54.2647 2.48481C54.2546 2.53524 54.4277 2.73616 54.7841 3.087C55.0652 3.43508 55.326 3.93779 55.567 4.59593C55.7992 5.57358 55.8932 6.17537 55.8485 6.40112L55.8002 6.39108C55.857 6.93437 55.8946 7.57399 55.9132 8.31033C55.8688 8.36627 55.8428 8.41178 55.8359 8.44763C55.9324 8.46713 55.9576 8.75513 55.9113 9.31142L55.8446 9.39495L55.7855 10.6854C55.6769 10.9106 55.6181 11.0469 55.6086 11.0944L55.5995 11.394L55.6433 11.4028L55.7496 11.3735L55.7302 11.4716L55.6635 11.5553C55.6955 11.5618 55.7085 11.5815 55.7021 11.6142C55.6699 11.6077 55.6505 11.6205 55.6441 11.6532L55.7386 11.6727C56.1458 11.0856 56.4402 10.6124 56.6216 10.2529C56.6216 10.1832 56.7186 10.0697 56.9124 9.9121L57.6325 8.29858C57.5997 8.28065 57.5833 8.16541 57.5833 7.95326C57.8099 7.46551 57.9545 7.22164 58.0171 7.22164C58.2527 6.70041 58.6389 5.58999 59.1757 3.89038L59.6094 2.86329C59.5767 2.79946 59.5604 2.751 59.5604 2.71771C59.6796 2.71771 59.8555 2.57076 60.0881 2.27685H60.2849L60.3297 2.47226H60.3789C60.4445 2.47226 60.4772 2.43897 60.4772 2.37219L60.9559 2.42223H61.0542C61.0542 2.51934 61.0856 2.5678 61.1482 2.5678H61.1975C61.1975 2.47069 61.2302 2.42223 61.296 2.42223H61.345C61.4076 2.43129 61.439 2.46458 61.439 2.5223L61.5373 2.47226H61.5821V2.66768H61.6804C61.7432 2.66768 61.7745 2.63439 61.7745 2.5678V2.5223L61.7297 2.42223L61.9712 2.37219H62.0653L62.016 2.47226V2.61784C62.0816 2.61784 62.1143 2.68284 62.1143 2.81325H62.4992C62.4992 2.84654 62.4827 2.86329 62.4499 2.86329C62.4648 3.02679 62.5139 3.10854 62.5975 3.10854V3.39929C62.6153 3.74796 62.7107 3.99321 62.8838 4.13563C62.8838 4.1508 62.9329 4.3145 63.0313 4.62652L63.1254 4.57649H63.1746L63.3667 5.31263C63.4548 5.31263 63.5022 5.39521 63.509 5.56053L63.5098 5.60358H63.6576C63.6605 5.78836 63.7561 6.14747 63.9439 6.68091C63.911 6.85958 63.8947 6.98979 63.8947 7.07154L63.993 7.12157C63.993 7.08828 64.0094 7.07154 64.0422 7.07154C64.0422 7.13832 64.1376 7.35028 64.3286 7.70781C65.3216 7.61089 65.9164 7.56243 66.1132 7.56243V7.6625H66.0147L66.0639 7.90342L65.1023 8.1987L65.1471 8.29858C65.1471 8.45321 65.004 8.55013 64.7177 8.58953V8.63956H64.8115V8.73963L64.7177 8.88501V8.98035C64.9742 9.8075 65.1828 10.5423 65.3439 11.1846C65.3439 11.2363 65.3753 11.3013 65.4377 11.3801V11.4301C65.4377 11.4634 65.4214 11.4799 65.3885 11.4799L65.8226 12.7527C65.7927 12.7527 65.7778 12.7692 65.7778 12.8025C65.9149 12.8025 66.0581 13.307 66.2072 14.316C66.0998 14.316 66.0207 14.3977 65.9701 14.5612H65.6793C65.6793 14.6613 65.5988 14.7113 65.4377 14.7113C65.3245 14.5992 65.0352 14.4674 64.5701 14.316C64.5701 14.2646 64.3299 14.1674 63.8499 14.0252C63.8499 13.9888 63.753 13.9068 63.5591 13.7798V13.6797L63.8947 13.7297H64.0422C64.1048 13.7297 64.136 13.698 64.136 13.6342C64.136 13.5312 63.8321 12.7312 63.2237 11.2347C63.2237 11.0345 63.0626 10.5287 62.7405 9.71669C62.1234 9.91368 61.4495 10.0606 60.7188 10.1576C60.7188 10.1241 60.7025 10.1075 60.6698 10.1075C60.6698 10.2044 60.5728 10.2694 60.3789 10.3029C59.8332 10.4302 59.5604 10.6104 59.5604 10.8437C59.3576 11.4983 59.1653 11.9541 58.9832 12.2117V12.3616C59.0788 12.3616 59.1265 12.3936 59.1265 12.4572V12.5072L59.0325 12.4572H58.9342C58.8388 12.7117 58.7911 12.8752 58.7911 12.9479L58.6926 12.898C58.6926 12.9829 58.5957 13.0812 58.4018 13.1933C58.4018 13.254 58.226 13.5479 57.8741 14.075L57.7756 14.1206H57.6817L57.4894 13.9752H57.4402C57.3776 13.9842 57.3463 14.0175 57.3463 14.075C57.376 14.1355 57.3909 14.184 57.3909 14.2204L57.2971 14.2705C57.2552 14.2372 57.1748 14.2204 57.0555 14.2204C57.0555 14.3173 56.9914 14.3658 56.8632 14.3658L56.0894 13.8298C55.8913 13.8298 55.6983 13.5936 55.5102 13.1213C55.4943 13.3348 55.4434 13.6589 55.3574 14.0935L55.2816 14.4764C55.2376 14.6994 55.1848 14.8044 55.1234 14.792L55.0764 15.2829L55.02 15.5682C54.8475 16.1016 54.636 16.4247 54.3857 16.5371C54.3192 16.5897 54.1997 16.6297 54.0293 16.6579L54.0088 16.6652C53.8752 16.7769 53.9702 16.7465 53.8609 16.8574C53.824 16.8738 53.7393 16.8823 53.609 16.8834V16.8846C53.5299 16.9201 53.4295 16.9287 53.3075 16.9104C53.1615 17.0848 53.0489 17.1898 52.9698 17.225L52.4933 17.2197C52.0596 17.2713 51.5196 17.281 50.8736 17.2487C50.3767 17.0038 49.7881 16.822 49.1076 16.7024C48.7691 16.44 48.4678 16.3082 48.2034 16.3073C48.1398 16.1603 47.6871 15.8447 46.8455 15.3603C46.5647 15.2012 46.3957 15.1342 46.3383 15.16C46.1264 14.9337 45.9794 14.8387 45.8974 14.8753L45.8201 14.6965C46.6231 15.0162 47.0547 15.1626 47.1146 15.1356L47.0948 15.0901L46.6917 14.8927L46.6737 14.8511L46.7189 14.831C46.7272 14.8505 46.9829 14.952 47.4862 15.136C47.9891 15.3197 48.4137 15.4121 48.7596 15.4131C49.0399 15.4667 49.2199 15.4756 49.299 15.4401L49.3439 15.42C49.3932 15.3982 49.4091 15.3562 49.392 15.2943C48.209 14.9922 47.5805 14.7552 47.5058 14.5834L47.4397 14.6675C47.3497 14.7079 47.2596 14.624 47.1694 14.416L47.0836 14.4544L47.1214 14.5416L47.0762 14.5619C47.0235 14.44 46.9568 14.3273 46.8763 14.2243L46.9665 14.1841L46.9862 14.2296C48.524 14.7867 49.5814 15.0806 50.158 15.1107C50.158 15.1107 51.7796 15.4728 52.5324 15.0357C53.8895 14.2477 53.5415 8.90642 53.5415 8.90642L53.6474 7.37956C53.6625 6.30421 53.5619 5.15242 53.3455 3.92459C53.2418 3.64999 52.824 2.57069 52.8682 2.3479C52.938 2.19543 53.0006 2.12452 53.0561 2.13594L53.1964 2.1645C53.2088 2.10226 53.2311 2.07428 53.2633 2.08078ZM64.4321 9.95938C64.626 10.7107 64.7706 11.0865 64.866 11.0865V11.0365C64.866 10.9971 64.8497 10.835 64.8167 10.5501L64.866 10.3049C64.8332 10.3049 64.8167 10.2882 64.8167 10.2549L64.7229 10.3049H64.6244C64.6244 10.0744 64.5604 9.95938 64.4321 9.95938ZM61.4714 6.01962C61.3194 6.22252 61.1585 6.58143 60.9885 7.09675C60.9167 7.54805 60.7886 7.98733 60.6038 8.4146H60.5546V8.61001C60.7186 8.61001 61.2494 8.4798 62.1469 8.21919V8.16935C62.1469 8.09942 61.9218 7.39814 61.4714 6.06493V6.01962ZM60.016 3.65577H59.8237V3.75584H59.9222C59.439 4.79515 59.1975 5.51317 59.1975 5.9101C59.2661 5.89493 59.3301 5.81318 59.3898 5.66465C59.3599 5.60713 59.3452 5.54193 59.3452 5.46924C59.4196 5.46924 59.5643 5.19188 59.7789 4.63756L59.7298 4.53749V4.48745C59.9057 4.28455 60.0011 4.00739 60.016 3.65577Z" fill="#1D1D1F"/>
<path d="M39.4331 13.6399C38.8546 13.6066 38.5653 13.4764 38.5653 13.2493C38.4848 13.2493 38.4044 13.2158 38.3237 13.1492C38.3237 13.1825 38.3074 13.1993 38.2747 13.1993C38.2747 13.1597 38.1463 13.0295 37.89 12.8082C37.89 12.6688 37.7617 12.522 37.5054 12.3674C37.2101 12.1917 36.809 11.4904 36.302 10.2632C36.1967 10.1129 36.1341 10.0973 36.1143 10.2163C36.1442 10.4649 36.1591 10.7495 36.1591 11.0708C36.1591 11.1193 36.1442 11.1435 36.1143 11.1435L36.1591 11.2436V11.5389C36.1591 11.6025 36.1277 11.7646 36.0651 12.0252L36.1591 11.9797C36.1919 12.316 36.2082 12.5114 36.2082 12.5661H36.1591L36.2082 12.6615V13.0068L36.2574 13.2523C36.1919 13.2523 36.1591 13.3007 36.1591 13.3978C36.1591 13.425 36.1754 13.5552 36.2082 13.7887L35.6804 13.9841C35.4866 13.9841 35.3898 13.8219 35.3898 13.4977H35.2913C35.2615 13.625 35.2465 13.7386 35.2465 13.8387H35.1973C35.1973 13.6324 35.0364 13.5022 34.7143 13.4477C34.7143 13.2296 34.6339 12.9674 34.4728 12.6615C34.4102 12.6948 34.3625 12.7115 34.3297 12.7115V12.7614H34.428V12.8114C34.428 12.8417 34.4117 12.8569 34.3787 12.8569L34.428 12.9568V13.0568C34.1686 12.8205 34.0389 12.3798 34.0389 11.7343C34.1044 11.0618 34.1374 10.5799 34.1374 10.289C34.1374 9.9468 34.1044 9.64521 34.0389 9.3846C34.0389 9.35446 34.0552 9.22405 34.0881 8.99377C34.0881 8.95142 34.0716 8.78772 34.0389 8.50308L34.0881 8.25763C34.0552 8.20287 34.0389 8.12112 34.0389 8.01218H34.0881C34.0253 7.83942 33.9778 7.59555 33.9449 7.28057H33.9941C33.5974 5.22303 33.2442 4.19456 32.9342 4.19456L32.8357 3.85357V3.80353C32.8446 3.73715 32.8774 3.70386 32.9342 3.70386H32.9788L33.0773 3.7537C33.0773 3.72041 33.0935 3.70386 33.1263 3.70386L33.0773 3.60832C33.0862 3.54154 33.1174 3.50825 33.1711 3.50825C33.2337 3.54154 33.283 3.55829 33.3186 3.55829C33.3186 3.50983 33.3663 3.46137 33.4619 3.41291C33.6558 3.54903 33.7525 3.69618 33.7525 3.85357C33.845 3.85357 33.9896 3.77182 34.1864 3.60832L34.3217 3.60359C34.3217 3.7338 34.4499 3.799 34.7064 3.799V3.89907H34.6081V3.94438C34.781 3.94438 34.9092 3.99442 34.9928 4.09449L34.948 3.99442V3.94438H35.042C35.042 4.0019 35.1389 4.14885 35.3326 4.38544C35.9082 5.82443 37.5678 8.24088 38.373 11.2402C38.4416 11.2402 38.5058 11.3872 38.5653 11.6813C38.8875 11.3267 39.1766 10.233 39.4331 8.39985C39.4331 8.36952 39.4168 8.35455 39.384 8.35455C39.4406 7.56975 39.5211 7.17735 39.6254 7.17735C39.6254 7.21379 39.6419 7.26225 39.6746 7.32292C39.6091 7.45313 39.5762 7.63337 39.5762 7.86365C39.5762 7.93634 39.5926 8.00154 39.6254 8.05907C39.5926 8.43787 39.5449 8.73158 39.4823 8.94078C39.5151 9.16791 39.5628 9.28157 39.6254 9.28157H39.6746C39.6746 9.15136 39.7061 9.08616 39.7685 9.08616V8.5998C39.8043 8.5998 39.8536 8.58325 39.9162 8.54976C39.8834 8.48023 39.8505 8.33327 39.8177 8.1091C39.8803 8.07561 39.928 8.05907 39.961 8.05907L39.9162 7.81362C39.9461 7.81362 39.961 7.79707 39.961 7.76358H39.867V7.66824C39.9951 7.66824 40.0593 7.29239 40.0593 6.54108C40.1041 6.31986 40.1518 6.1731 40.2024 6.10022C40.1399 6.10022 40.1085 6.05176 40.1085 5.95464V5.41391H40.0593V5.3686C40.0593 5.33531 40.0758 5.31857 40.1085 5.31857L40.0593 5.2185C40.1339 5.14581 40.1979 4.93385 40.2516 4.58243L40.2024 4.48689C40.2681 4.36574 40.3009 4.23533 40.3009 4.09606L40.2516 3.99599H40.3501V3.94596H40.2516V3.85062C40.4038 3.51731 40.6289 3.25512 40.9271 3.06424C41.2163 3.119 41.361 3.18401 41.361 3.25985V3.35972C41.0031 3.5053 40.7138 3.78246 40.4932 4.1914L40.5424 4.29147L40.3947 5.3686H40.4932L40.3947 5.51398C40.3947 5.58667 40.4112 5.65187 40.4439 5.70939L40.3501 5.95464L40.3947 6.20009L40.3501 6.29563L40.3947 6.59111V6.73649C40.3323 7.05462 40.3009 7.23487 40.3009 7.27722C40.3009 7.34991 40.3173 7.41511 40.3501 7.47263C40.2846 7.63633 40.2353 7.71808 40.2024 7.71808L40.2516 7.81362C40.2516 7.97731 40.2204 8.05907 40.1578 8.05907L40.2024 8.15913L40.1085 8.30451C40.1413 8.48318 40.1578 8.61339 40.1578 8.69514C40.1248 8.69514 40.1085 8.71188 40.1085 8.74517H40.2024C40.2024 8.41798 40.283 8.10752 40.4439 7.81362L40.3947 7.52267V7.47263C40.526 7.47263 40.5917 7.34242 40.5917 7.08181H40.6365L40.5917 6.98194C40.6661 6.87576 40.7138 6.729 40.7348 6.54108C40.702 6.48671 40.6855 6.40476 40.6855 6.29563H40.7348L40.6855 6.20009L40.784 6.05038V6.00468C40.784 5.92903 40.7675 5.86383 40.7348 5.80946C40.7974 5.57899 40.8451 5.46395 40.8778 5.46395C40.8451 5.4214 40.8286 5.33965 40.8286 5.2185C40.8616 5.2185 40.8778 5.20353 40.8778 5.17319L40.8286 4.97305C40.8734 4.82472 40.9375 4.74435 41.0209 4.73214L40.9763 4.63226C41.0062 4.57455 41.0209 4.50954 41.0209 4.43685H41.1194C41.0866 4.87633 41.0702 5.20195 41.0702 5.41391V5.75943C40.9748 5.75943 40.9271 5.79114 40.9271 5.85477C41.0225 5.85477 41.0702 6.01847 41.0702 6.34566H41.1194C41.2476 6.09411 41.3117 5.94716 41.3117 5.90481C41.279 5.84118 41.2627 5.79272 41.2627 5.75943L41.3117 5.26853C41.279 5.20491 41.2627 5.15645 41.2627 5.12316C41.361 5.12316 41.4102 5.05815 41.4102 4.92755H41.5041V4.97305C41.3759 5.64577 41.3117 6.75619 41.3117 8.30451H41.2627C41.2627 8.3378 41.279 8.35455 41.3117 8.35455L41.2627 8.5998V8.69514L41.4548 8.5998V8.6453C41.3922 9.30895 41.2476 10.3207 41.0209 11.6813C41.0209 12.0721 40.7809 12.6113 40.3009 13.2993C40.3009 13.4991 40.0116 13.6127 39.4331 13.6399Z" fill="#1D1D1F"/>
<path d="M43.682 12.4955H43.3956C43.3956 12.4319 43.2987 12.3667 43.105 12.3001C42.6219 11.7789 42.3803 10.4246 42.3803 8.23706C42.3504 8.23706 42.3357 8.17206 42.3357 8.04165C42.3357 8.00836 42.3504 7.99161 42.3803 7.99161L42.3357 7.74636V7.30531C42.3357 7.27497 42.3504 7.26 42.3803 7.26C42.3504 7.19637 42.3357 7.14634 42.3357 7.1099L42.3803 5.93742H42.4295C42.4295 5.90413 42.4132 5.88739 42.3803 5.88739C42.422 5.44515 42.4549 5.18454 42.4788 5.10554C42.4788 5.07225 42.4623 5.05571 42.4295 5.05571C42.4295 5.02222 42.446 4.97376 42.4788 4.91033C42.5115 4.08633 42.5278 3.43331 42.5278 2.95148C42.5278 2.41823 42.4638 1.73193 42.3357 0.89276C42.4757 0.632145 42.6203 0.50174 42.7694 0.50174C42.9543 0.50174 43.0662 0.583687 43.105 0.747186C43.3405 0.801949 43.5492 0.965449 43.7312 1.23828C43.7312 1.32594 43.764 1.42285 43.8295 1.52903L43.9235 1.48353H43.9728C44.0354 1.92892 44.0666 2.17279 44.0666 2.21514H44.1651V2.1198C44.3022 2.1198 44.3826 2.34693 44.4065 2.80157C44.4513 2.80157 44.5154 3.03028 44.5988 3.48768C44.6318 3.48768 44.648 3.50443 44.648 3.53772C44.648 3.57101 44.6318 3.58775 44.5988 3.58775L44.7421 4.61485C44.7093 4.79076 44.6928 4.93751 44.6928 5.05571V5.59191C44.6928 5.66775 44.6779 5.73453 44.648 5.79205C44.6779 5.85252 44.6928 5.90098 44.6928 5.93742C44.5765 7.14319 44.4811 7.74636 44.4065 7.74636L44.4557 8.09168V8.9732C44.4557 9.04589 44.4394 9.1111 44.4065 9.16862C44.4394 9.22633 44.4557 9.29134 44.4557 9.36423V9.41406C44.4557 9.47789 44.423 9.5096 44.3574 9.5096C44.3574 9.47631 44.3409 9.45957 44.3082 9.45957V9.5096L44.4065 9.65498V9.75505L44.2143 11.3229L43.9728 11.7137C43.8654 11.7137 43.7684 11.7622 43.682 11.8593C43.682 11.8924 43.6982 11.9091 43.7312 11.9091L43.682 12.4002V12.4955Z" fill="#1D1D1F"/>
<path fill-rule="evenodd" clip-rule="evenodd" d="M35.8139 26.3071L34.8882 26.2128L34.7983 26.26C34.421 26.1659 34.1438 26.0274 33.9668 25.8447C33.5667 25.5161 33.3668 25.2707 33.3668 25.1079C33.3668 25.0795 33.3354 24.9553 33.2724 24.7353V24.6926L33.3196 24.5983C33.2797 24.5983 33.1883 24.4756 33.0454 24.2299V24.0928C33.0454 24.0614 33.1524 23.9686 33.3668 23.8143L33.3196 23.5832C33.8596 23.1835 34.2297 22.9835 34.4295 22.9835V23.0307C34.4295 23.1534 34.3211 23.399 34.1039 23.7673V23.8143C34.1697 23.8143 34.3396 23.8601 34.6138 23.9515L35.3983 23.8614V23.9086C35.604 23.8772 35.804 23.8301 35.9983 23.7673L36.3197 23.8143C36.7654 23.7432 37.3197 23.466 37.9827 22.9835C38.1712 22.8265 38.3555 22.5808 38.5355 22.2469C38.6897 22.0841 38.7668 21.9298 38.7668 21.7842C37.0553 21.4159 36.1325 21.1846 35.9983 21.0905C35.9983 21.153 35.9668 21.1846 35.904 21.1846C34.8211 20.9247 34.191 20.6793 34.0138 20.4479C33.8825 20.4479 33.651 20.2939 33.3196 19.9853C33.2395 19.9768 33.071 19.7768 32.8138 19.3857C32.7396 19.3857 32.6625 19.2787 32.5825 19.0643C32.4595 19.0643 32.3982 18.9102 32.3982 18.6019C32.3982 18.088 32.5509 17.641 32.8567 17.2613C33.0424 16.9472 33.2581 16.686 33.5039 16.4775C33.6495 16.332 33.7424 16.179 33.7825 16.0192C34.2538 15.6794 34.5312 15.5096 34.6138 15.5096C35.3082 15.5808 35.8154 15.7036 36.1354 15.8777C36.8439 16.2547 37.1984 16.6088 37.1984 16.94V17.3085H37.104V17.3554L37.1512 17.4497L36.9197 17.4926C36.8196 17.4926 36.5896 17.3699 36.2296 17.1241C35.6981 17.3411 35.3755 17.4954 35.261 17.5869C35.2354 17.7325 35.0353 17.9167 34.661 18.1392C34.661 18.1907 34.5068 18.3449 34.1983 18.6019C34.0125 18.8816 33.9196 19.0502 33.9196 19.1074C34.5367 19.3842 35.5525 19.6612 36.9667 19.9383C38.247 20.2467 39.0311 20.5551 39.3198 20.8634C40.2455 21.3231 40.7084 21.6758 40.7084 21.9212H40.6141C40.6141 21.8412 40.4456 21.6886 40.1084 21.4629H40.014V21.5058C40.1541 21.8828 40.3698 22.1297 40.6612 22.2469C40.6612 22.2868 40.7383 22.4253 40.8927 22.6622C40.8297 22.6709 40.7983 22.7008 40.7983 22.7522L40.8455 23.1677C40.8455 23.402 40.6612 23.5859 40.2927 23.7203C40.2927 23.8202 40.1541 23.9743 39.8769 24.1828C39.8769 24.3371 39.6297 24.5526 39.1355 24.8296C39.1355 24.8894 38.9355 25.0737 38.5355 25.3821C38.4441 25.4192 38.3982 25.4664 38.3982 25.5233H38.3512L38.2611 25.4764C38.2611 25.699 37.9684 25.9147 37.3827 26.123C37.3827 26.0289 37.3511 25.9817 37.2883 25.9817C37.1884 26.1215 37.0197 26.2143 36.7826 26.26L36.504 26.2128H36.4139C36.3453 26.2128 36.284 26.2286 36.2296 26.26L36.1354 26.2128C36.081 26.2444 36.0197 26.26 35.9512 26.26L35.8611 26.2128L35.8139 26.3071ZM44.7276 25.796H44.6333C44.3162 25.796 44.1005 25.7504 43.9861 25.659L43.8018 25.7062C43.7533 25.7062 43.6617 25.6447 43.5276 25.5218L43.4332 25.5647C43.219 25.5161 43.019 25.3319 42.8332 25.0121L42.739 25.0592H42.6489C42.0032 24.5283 41.6803 24.1742 41.6803 23.9971C41.1574 22.9178 40.896 21.6871 40.896 20.3052C40.8732 20.3052 40.826 19.8596 40.7545 18.9689H40.8017C40.7389 18.8116 40.7075 18.7047 40.7075 18.6475C40.7303 18.4619 40.7617 18.369 40.8017 18.369L40.5232 17.0328C40.5802 17.0328 40.6274 16.8943 40.6646 16.6173C40.7874 16.6173 40.8488 16.5859 40.8488 16.5232V16.476H40.896L41.0331 16.5703C41.0989 16.5703 41.1903 16.4775 41.3075 16.2918C41.3417 16.2918 41.3889 16.2761 41.4489 16.2447V16.339L41.6803 16.2918C41.6803 16.3862 41.6946 16.4331 41.7232 16.4331C41.766 16.4017 41.8432 16.3862 41.9545 16.3862C41.9545 16.4573 42.0474 16.5029 42.2332 16.5232V16.5703L42.1862 16.6602C42.249 16.6602 42.2804 16.6915 42.2804 16.7543H42.3233C42.3547 16.7543 42.4789 16.7229 42.6961 16.6602H42.8332V16.9856L42.739 17.1226L42.8804 17.2169L42.739 17.9066C42.7503 17.9694 42.7817 18.0007 42.8332 18.0007C42.8018 18.3605 42.7862 18.6219 42.7862 18.7845V18.8317L42.8332 19.2899H42.7862L42.8332 19.3842V19.4313C42.8332 19.9253 42.8789 20.8162 42.9703 22.1039H42.9233C42.9547 22.1754 43.0175 22.4223 43.1118 22.845L43.0647 23.0763C43.1247 23.1762 43.1546 23.2675 43.1546 23.3503L43.1118 23.4446C43.2632 23.4446 43.339 23.5987 43.339 23.9071C43.3903 23.9071 43.4533 23.9984 43.5276 24.1813C43.679 24.1813 44.0475 23.8128 44.6333 23.0763C44.9732 22.5023 45.3119 21.5171 45.649 20.121V19.474L45.6018 19.1528H45.649L45.6018 19.0628C45.6018 18.9917 45.6176 18.9288 45.649 18.8746C45.5576 17.6695 45.5119 16.9472 45.5119 16.7073C45.6232 16.5588 45.762 16.4359 45.9277 16.339V16.2018H46.0176V16.2918H46.1547C46.312 16.0776 46.4504 15.9705 46.5704 15.9705L46.6176 16.0605L46.712 16.0176H46.8019V16.1547H46.8491L47.0805 16.1077L47.359 16.2918V16.4331H47.5433V16.339C47.6035 16.3704 47.6492 16.3862 47.6806 16.3862C47.7406 16.3546 47.7863 16.339 47.8177 16.339C48.0348 16.5388 48.1433 16.7844 48.1433 17.0755C48.1119 17.0755 48.0961 17.0912 48.0961 17.1226C48.1563 17.1341 48.1862 17.1655 48.1862 17.2169C48.0948 17.2884 48.0491 17.3953 48.0491 17.5383H48.0019L47.912 17.2598C47.8491 17.2711 47.8177 17.3025 47.8177 17.3539V18.0007C47.8177 18.292 47.8019 18.646 47.7705 19.0628L47.8177 19.2899C47.6263 20.5348 47.442 21.3659 47.2648 21.7827C47.2332 21.7827 47.2176 21.7985 47.2176 21.8299V22.2454L47.2648 22.7037C47.1418 22.7037 47.0805 22.8279 47.0805 23.0763H47.0334C47.0334 23.1762 47.0948 23.5144 47.2176 24.0912H47.1705L47.2176 24.1813V24.4126C47.2176 24.4811 47.202 24.5426 47.1705 24.5968C47.202 24.6567 47.2176 24.7024 47.2176 24.7338C47.1491 24.7338 47.072 24.581 46.9862 24.2756H46.9433C46.9433 24.304 46.9277 24.3183 46.8963 24.3183C46.9563 24.6439 47.0334 24.9679 47.1277 25.2905C47.0961 25.3507 47.0805 25.3963 47.0805 25.4277C47.0319 25.4277 46.9247 25.1049 46.759 24.4598H46.712L46.6648 24.5496V24.5968H46.759V24.875H46.8491C46.8491 24.9066 46.8333 24.9222 46.8019 24.9222L46.8491 25.0121V25.1492L46.759 25.1064C46.759 25.135 46.7434 25.1492 46.712 25.1492C46.6176 24.9664 46.5091 24.6281 46.3861 24.1341H46.2962C46.2533 24.1341 46.192 24.2726 46.112 24.5496C46.052 24.5496 45.8976 24.7195 45.649 25.0592L45.6962 25.1492C45.6134 25.2519 45.3977 25.3447 45.049 25.4277C44.8346 25.6048 44.7276 25.7275 44.7276 25.796ZM47.4422 26.539H47.3051C47.2735 26.3134 47.2421 26.1749 47.2107 26.1235C47.2421 26.0723 47.2579 25.9952 47.2579 25.8924H47.3521V26.0763L47.3051 26.1664C47.3651 26.1978 47.4108 26.2133 47.4422 26.2133V26.2605L47.3521 26.3977C47.4121 26.409 47.4422 26.4406 47.4422 26.4918V26.539ZM58.2587 27.4983L58.0745 27.4084C58.0145 27.437 57.9673 27.4513 57.9331 27.4513L57.7486 27.4084C57.6888 27.437 57.6431 27.4513 57.6115 27.4513C57.6115 27.3715 57.503 27.31 57.2859 27.2672C57.2173 27.0871 57.0944 26.9345 56.9171 26.8088C56.7343 26.4776 56.5958 26.0165 56.5016 25.4254L56.5486 25.331C56.5172 25.2711 56.5016 25.2254 56.5016 25.194H56.5486C56.4943 25.0942 56.4328 24.6631 56.3643 23.9004H56.4115C56.3545 23.715 56.2001 22.2701 55.9486 19.5661C55.9172 19.5661 55.8715 19.3192 55.8115 18.8252C55.8115 18.7939 55.8272 18.748 55.8586 18.688C55.8586 18.3684 55.6729 18.0141 55.3015 17.626C55.3015 17.6057 55.2244 17.3902 55.0701 16.979C55.1044 16.842 55.2129 16.735 55.3957 16.658H55.4429V16.7478C55.6601 16.6879 55.7829 16.658 55.8115 16.658H55.8586V16.9363H55.9486L55.9016 17.0261V17.0733C55.9643 17.0733 55.9957 17.0891 55.9957 17.1204L56.3643 16.8891H56.4115V16.9363C56.3801 16.9933 56.3643 17.0389 56.3643 17.0733C56.3959 17.0733 56.4115 17.0891 56.4115 17.1204C56.4715 17.0891 56.5172 17.0733 56.5486 17.0733C56.8172 17.0905 57.0944 17.336 57.3801 17.8101C57.3801 18.0128 57.4873 18.3212 57.7016 18.7352C57.9186 20.7082 58.0273 21.7848 58.0273 21.9647H58.0745C58.7744 21.8704 59.2974 21.8232 59.6431 21.8232H59.8273C60.1045 21.8232 60.2431 21.6549 60.2431 21.3179H60.2903L60.2431 21.2236V21.1809C60.3973 21.1809 60.5516 20.2569 60.706 18.4096C60.643 18.4096 60.6116 18.3797 60.6116 18.3197V18.0412C60.7774 18.0412 60.9003 17.9956 60.9802 17.9042H61.0746L61.1175 18.1356C61.0887 18.1356 61.0746 18.1498 61.0746 18.1783L61.1645 18.2254C61.1645 18.194 61.1803 18.1783 61.2117 18.1783L61.1645 18.0884V18.0412C61.3673 18.0412 61.4903 17.9486 61.533 17.763H61.6274C61.6274 17.7971 61.6432 17.8443 61.6746 17.9042L61.7645 17.8573H61.8117C61.8117 17.9599 61.8273 18.037 61.8589 18.0884L61.9488 18.0412C62.0118 18.05 62.0432 18.0813 62.0432 18.1356V18.1783H61.9488V18.2254H62.0903L62.1331 18.1356C62.1047 18.0754 62.0903 18.0286 62.0903 17.9943H62.1803C62.366 18.1569 62.4589 18.2954 62.4589 18.4096H62.596L62.6902 18.3624L62.6432 18.2726C62.6517 18.2098 62.6818 18.1783 62.7331 18.1783C62.9618 18.1783 63.0861 18.2254 63.1061 18.3197V18.4096C63.1061 18.4725 63.0589 18.5039 62.9646 18.5039C63.0875 18.8237 63.1488 19.0235 63.1488 19.1035C62.9974 19.7147 62.9218 20.4827 62.9218 21.408L63.0117 21.4551C63.0117 21.4235 63.0273 21.408 63.0589 21.408C63.0589 21.4707 63.0745 21.5019 63.1061 21.5019L63.2902 21.408V21.4551C63.2902 21.5464 63.1674 21.6077 62.9218 21.6391V21.9176H63.2432L63.8432 21.7804C63.8432 21.8091 63.859 21.8232 63.8902 21.8232C63.8902 21.7635 64.0132 21.7178 64.259 21.6862V21.7334C64.259 21.7733 64.0589 21.8804 63.659 22.0546C63.659 22.1773 63.3818 22.3158 62.8275 22.47V22.5642L63.0589 22.5172C63.0903 22.5172 63.1061 22.5328 63.1061 22.5642C63.1661 22.5328 63.2118 22.5172 63.2432 22.5172H63.3374V22.5642C62.966 22.6098 62.7803 22.6713 62.7803 22.7483C62.7803 22.8398 62.7645 22.8855 62.7331 22.8855L62.7803 22.9796C62.7203 23.2395 62.6902 23.3923 62.6902 23.438L62.7331 23.7165C62.7331 23.9992 62.6417 24.7058 62.4589 25.8366H62.3645V25.7467H62.3218V26.3462H62.1803L61.996 26.2092C61.996 26.2606 61.9189 26.3991 61.7645 26.6246C61.7645 26.953 61.6731 27.1372 61.4903 27.1773C61.4903 27.2686 61.336 27.3143 61.0274 27.3143H60.9802C60.9802 27.223 60.9345 27.1773 60.8431 27.1773H60.7959V26.8088C60.7959 26.7375 60.7803 26.6761 60.7487 26.6246C60.7487 26.5933 60.7645 26.5775 60.7959 26.5775C60.7959 26.5147 60.7803 26.4832 60.7487 26.4832C60.8203 25.3153 60.8818 24.7316 60.9332 24.7316L60.8903 24.6373C60.9503 24.4258 60.9802 24.2419 60.9802 24.0848V23.7165L61.0274 23.4852C60.9531 23.4252 60.8916 23.3953 60.8431 23.3953C60.3887 23.4866 60.0802 23.5622 59.9173 23.6222V23.9004C59.8374 23.9004 59.7302 24.0703 59.5959 24.4102L59.1801 25.331C59.1201 25.3624 59.0744 25.3782 59.043 25.3782V25.7467C59.043 25.8208 58.966 25.9593 58.8116 26.162C58.8116 26.3447 58.7802 26.4362 58.7174 26.4362L58.7644 26.5303C58.5186 26.793 58.3958 26.9473 58.3958 26.9931V27.2243L58.443 27.3143C58.3401 27.3143 58.2786 27.3756 58.2587 27.4983ZM60.4848 21.404C60.6304 20.9387 60.7376 20.6916 60.8061 20.663C60.7747 20.5403 60.729 20.4332 60.669 20.3419L60.7589 20.2049H60.7162C60.6648 20.2049 60.6018 20.312 60.5275 20.526L60.5747 20.7573C60.5604 20.8801 60.5147 20.9415 60.4376 20.9415V20.9885L60.4848 21.0787H60.3904V21.3098C60.4019 21.3728 60.4333 21.404 60.4848 21.404ZM61.6329 25.1933C61.7072 25.1933 61.7529 25.0388 61.77 24.7304C61.7414 24.6707 61.7272 24.625 61.7272 24.5934H61.8172V24.4095C61.8172 24.3465 61.7871 24.3151 61.7272 24.3151L61.77 24.0838V23.6255C61.77 23.5941 61.7858 23.5783 61.8172 23.5783L61.77 23.4842C61.77 23.4528 61.7858 23.407 61.8172 23.3472L61.7272 22.9317C61.7557 22.9317 61.77 22.9159 61.77 22.8846H61.6801V23.2102C61.6801 23.2787 61.6643 23.3399 61.6329 23.3942C61.6329 23.4257 61.6487 23.4413 61.6801 23.4413L61.6329 23.6684V23.7625L61.6801 24.0838H61.6329L61.6801 24.1781V24.268C61.6801 24.3307 61.6487 24.3623 61.5857 24.3623C61.6487 24.4622 61.6801 24.555 61.6801 24.6406V24.8676L61.6329 25.1933ZM61.3049 25.6043C61.3651 25.3729 61.395 25.2345 61.395 25.1888C61.395 25.1574 61.3792 25.1416 61.3478 25.1416L61.395 24.9103V24.405L61.3478 23.848H61.395L61.3478 23.758V23.4368C61.3478 23.4055 61.3636 23.3897 61.395 23.3897C61.3636 23.3498 61.3478 23.2412 61.3478 23.0642C61.2878 23.0757 61.2579 23.1071 61.2579 23.1585V23.4797C61.2579 23.6568 61.2421 23.7654 61.2107 23.8052C61.2421 23.9709 61.2579 24.1092 61.2579 24.2208V25.6043H61.3049ZM59.2346 24.451C59.2346 24.3511 59.3418 24.1369 59.5559 23.8085L59.7874 23.346V23.2517H59.7404C59.5632 23.4489 59.4246 23.6958 59.3247 23.9928C59.3046 23.9928 59.2431 24.0699 59.1404 24.2242V24.451H59.2346ZM58.1678 25.1918C58.3508 24.9917 58.6892 24.4836 59.1836 23.6669C59.1836 23.6383 59.1993 23.6241 59.2307 23.6241V23.7611H59.3208C59.3208 23.6326 59.3522 23.4785 59.415 23.2986H59.3678V23.3458C59.3364 23.3458 59.3208 23.33 59.3208 23.2986C58.815 23.4841 58.5235 23.5769 58.4464 23.5769C58.2378 23.4856 58.115 23.4399 58.0779 23.4399V23.5769C58.0779 23.6454 58.0922 23.7069 58.1206 23.7611C58.1206 23.7924 58.1065 23.8082 58.0779 23.8082C58.1065 23.9482 58.1364 24.4093 58.1678 25.1918ZM65.4538 27.18H65.1796C65.1796 27.1201 65.0867 27.0586 64.9009 26.9959C64.438 26.5047 64.2067 25.2283 64.2067 23.1667C64.1781 23.1667 64.1638 23.1055 64.1638 22.9826C64.1638 22.9512 64.1781 22.9354 64.2067 22.9354L64.1638 22.7043V22.2886C64.1638 22.2602 64.1781 22.2459 64.2067 22.2459C64.1781 22.186 64.1638 22.1388 64.1638 22.1045L64.2067 20.9995H64.2537C64.2537 20.9681 64.2381 20.9523 64.2067 20.9523C64.2467 20.5355 64.2781 20.2899 64.3009 20.2157C64.3009 20.1841 64.2853 20.1685 64.2537 20.1685C64.2537 20.1372 64.2695 20.0913 64.3009 20.0315C64.3325 19.255 64.3481 18.6395 64.3481 18.1854C64.3481 17.6829 64.2866 17.0361 64.1638 16.2452C64.2981 15.9996 64.4367 15.8767 64.5796 15.8767C64.7568 15.8767 64.8638 15.954 64.9009 16.1081C65.1266 16.1597 65.3267 16.3138 65.501 16.5709C65.501 16.6535 65.5325 16.7448 65.5953 16.8449L65.6852 16.802H65.7324C65.7924 17.2218 65.8225 17.4518 65.8225 17.4917H65.9167V17.4016C66.048 17.4016 66.1253 17.6157 66.1482 18.0442C66.1911 18.0442 66.2526 18.2597 66.3324 18.6908C66.3638 18.6908 66.3796 18.7066 66.3796 18.7379C66.3796 18.7693 66.3638 18.7851 66.3324 18.7851L66.4695 19.753C66.4381 19.9188 66.4225 20.0571 66.4225 20.1685V20.6739C66.4225 20.7453 66.4081 20.8083 66.3796 20.8625C66.4081 20.9195 66.4225 20.9651 66.4225 20.9995C66.3111 22.1358 66.2197 22.7043 66.1482 22.7043L66.1954 23.0297V23.8605C66.1954 23.929 66.1796 23.9904 66.1482 24.0446C66.1796 24.099 66.1954 24.1603 66.1954 24.229V24.276C66.1954 24.3361 66.1638 24.366 66.101 24.366C66.101 24.3346 66.0854 24.3188 66.0538 24.3188V24.366L66.1482 24.503V24.5973L65.9639 26.0751L65.7324 26.4432C65.6297 26.4432 65.5368 26.4889 65.4538 26.5804C65.4538 26.6118 65.4696 26.6274 65.501 26.6274L65.4538 27.0902V27.18ZM50.5623 17.7128C50.9899 17.5539 51.3913 17.421 51.7668 17.3142H51.8078V17.3922C51.6735 17.3998 51.6064 17.4271 51.6064 17.4745C51.3653 17.4893 51.2446 17.5428 51.2446 17.6347H51.1253C51.0358 17.6347 50.9427 17.6744 50.8457 17.7539H50.5623V17.7128ZM55.148 23.8073H55.1889C55.1889 23.7502 55.1491 23.6694 55.0696 23.5651V23.4459L55.1069 23.3638L54.8682 22.9615C54.4257 22.5141 53.9162 22.1129 53.3394 21.7578C52.7802 21.4273 52.4991 21.2397 52.4967 21.1951C52.2755 21.1006 51.6862 20.7404 50.7292 20.1144C50.2048 19.8187 49.8442 19.5107 49.6478 19.1901C49.6603 19.0834 49.7 19.0299 49.7671 19.0299C49.7671 18.8511 50.5863 18.5615 51.2826 18.2758C51.6851 18.1665 51.8865 18.0733 51.8865 17.9962C52.5801 17.7653 52.9678 17.6175 53.0499 17.5529C53.4527 17.4634 53.6541 17.3964 53.6541 17.3516C53.7137 17.3516 53.7672 17.4461 53.8144 17.6349L53.7733 17.7131C53.7733 17.7679 53.8131 17.795 53.8926 17.795V17.836C53.8131 17.836 53.7733 17.8759 53.7733 17.9554C53.8006 18.0894 53.8814 18.2634 54.0157 18.477H54.135L54.0939 18.3952H54.2134C54.3302 18.0473 54.4246 17.8733 54.4967 17.8733V17.795C54.4967 17.6633 54.5364 17.5293 54.616 17.3925C54.5886 17.3455 54.5751 17.2919 54.5751 17.2325C54.5626 17.1406 54.3488 16.9666 53.9336 16.7108L53.2513 16.5096H53.2103C53.0264 16.5096 52.8263 16.5504 52.6101 16.6325C51.8566 16.7914 51.3745 16.9516 51.1631 17.1133L51.0812 17.0722H51.0028C50.8661 17.179 50.692 17.246 50.4808 17.2735L49.0749 17.9143C48.4957 18.2125 48.1738 18.5207 48.1091 18.8385C48.1091 18.8782 48.1762 19.0522 48.3105 19.3602L48.2694 19.4422C48.2694 19.4647 48.3229 19.5839 48.4299 19.8C48.4299 19.872 48.497 19.9527 48.6313 20.0422C48.6313 20.1193 48.7517 20.2795 48.9928 20.5229C49.2938 20.7042 49.5211 20.8782 49.6753 21.0445C49.9438 21.0917 50.0781 21.1589 50.0781 21.2458C50.6051 21.5341 50.8995 21.7216 50.9618 21.8087C51.6404 22.1837 52.3364 22.6246 53.0499 23.1316C53.5049 23.3649 53.7324 23.5264 53.7324 23.6159C53.4564 23.8369 52.6398 24.011 51.2826 24.1376C51.2826 24.1103 51.2688 24.0966 51.2413 24.0966C51.1941 24.1239 51.1406 24.1376 51.0812 24.1376H49.515C49.0874 24.1376 48.8736 24.2978 48.8736 24.6182V24.7376C48.9755 24.7376 49.0426 24.8321 49.0749 25.0207L49.3136 25.1811C49.4281 25.2604 49.5087 25.3003 49.5561 25.3003C49.7076 25.4071 49.8145 25.4603 49.8767 25.4603C49.8767 25.5972 50.1316 25.6916 50.6411 25.7438V25.7809L50.6001 25.8628C50.8187 25.8628 50.953 25.889 51.0028 25.9412H51.1221L51.3645 25.9038L51.4427 25.9412C51.8282 25.9089 52.1624 25.8693 52.4458 25.822C52.4458 25.8493 52.4596 25.8628 52.4869 25.8628C53.0165 25.7984 53.5521 25.6642 54.0939 25.4603C54.2656 25.4208 54.4135 25.2468 54.5377 24.9389H54.8173L54.8994 24.6593V24.5364C54.8994 24.4742 55.2301 23.9837 55.148 23.8073Z" fill="#1D1D1F"/>
</svg>
