<svg width="45" height="44" viewBox="0 0 45 44" fill="none" xmlns="http://www.w3.org/2000/svg">
<path fill-rule="evenodd" clip-rule="evenodd" d="M23.6802 5.62558C21.7209 6.77811 20.75 8.22565 20.75 9.625C20.75 11.0244 21.7209 12.4719 23.6802 13.6244C25.6164 14.7634 28.3567 15.5 31.4375 15.5C34.5183 15.5 37.2586 14.7634 39.1948 13.6244C41.1541 12.4719 42.125 11.0244 42.125 9.625C42.125 8.22565 41.1541 6.77811 39.1948 5.62558C37.2586 4.48664 34.5183 3.75 31.4375 3.75C28.3567 3.75 25.6164 4.48664 23.6802 5.62558ZM22.6662 3.90171C24.96 2.55238 28.0634 1.75 31.4375 1.75C34.8116 1.75 37.915 2.55238 40.2088 3.90171C42.4796 5.23744 44.125 7.22739 44.125 9.625C44.125 12.0226 42.4796 14.0126 40.2088 15.3483C37.915 16.6976 34.8116 17.5 31.4375 17.5C28.0634 17.5 24.96 16.6976 22.6662 15.3483C20.3954 14.0126 18.75 12.0226 18.75 9.625C18.75 7.22739 20.3954 5.23744 22.6662 3.90171Z" fill="#86868B"/>
<path d="M37.625 9.625C37.625 11.1438 34.8548 12.375 31.4375 12.375C28.0202 12.375 25.25 11.1438 25.25 9.625C25.25 8.10622 28.0202 6.875 31.4375 6.875C34.8548 6.875 37.625 8.10622 37.625 9.625Z" fill="#9E9E9E"/>
<path fill-rule="evenodd" clip-rule="evenodd" d="M18.75 9.62511C18.75 9.62504 18.75 9.625 19.75 9.625C20.75 9.625 20.75 9.62504 20.75 9.62511V23.375C20.75 24.7744 21.7209 26.2219 23.6802 27.3744C25.6164 28.5134 28.3567 29.25 31.4375 29.25C34.5183 29.25 37.2586 28.5134 39.1948 27.3744C41.1541 26.2219 42.125 24.7744 42.125 23.375V9.625H44.125V23.375C44.125 25.7726 42.4796 27.7626 40.2088 29.0983C37.915 30.4476 34.8116 31.25 31.4375 31.25C28.0634 31.25 24.96 30.4476 22.6662 29.0983C20.3954 27.7626 18.75 25.7726 18.75 23.375V9.62511Z" fill="#86868B"/>
<path fill-rule="evenodd" clip-rule="evenodd" d="M4.33118 26.5442C4.85904 26.3818 5.41863 26.6781 5.58104 27.2059L7.55258 33.6134C7.94215 34.8795 8.93326 35.8706 10.1994 36.2602L23.4931 40.3506C24.5409 40.673 25.6751 40.5512 26.6305 40.0138L35.76 34.8784C36.2414 34.6077 36.8511 34.7784 37.1218 35.2598C37.3926 35.7411 37.2219 36.3508 36.7405 36.6216L27.611 41.7569C26.1779 42.5631 24.4766 42.7457 22.905 42.2622L9.61118 38.1718C7.71204 37.5874 6.22538 36.1007 5.64102 34.2016L3.66949 27.7941C3.50707 27.2662 3.80332 26.7067 4.33118 26.5442Z" fill="#86868B"/>
<path d="M38.2522 37.9197C35.7846 35.0946 25.6833 31.95 17.5305 30.3194C7.21803 28.2569 -3.09447 30.3194 1.71803 22.7569C6.3439 15.4877 34.2208 13.6787 39.6456 36.4172C40.0877 38.2701 38.7867 38.5316 38.2522 37.9197Z" fill="#9E9E9E"/>
<path fill-rule="evenodd" clip-rule="evenodd" d="M20.0872 17.6324C20.2211 18.1682 19.8954 18.7112 19.3596 18.8451C17.9104 19.2075 16.4983 20.2648 15.238 21.8317C13.9854 23.3892 12.9445 25.3757 12.2215 27.4433C11.4979 29.5126 11.111 31.6112 11.1254 33.3786C11.1401 35.1886 11.5705 36.447 12.244 37.0882C12.6441 37.469 12.6596 38.102 12.2788 38.502C11.898 38.902 11.2651 38.9176 10.8651 38.5368C9.60275 37.3351 9.14172 35.3971 9.12545 33.3948C9.10883 31.35 9.55136 29.0203 10.3336 26.7832C11.1164 24.5443 12.2577 22.3462 13.6796 20.5783C15.0938 18.8199 16.8486 17.4114 18.8745 16.9049C19.4103 16.7709 19.9532 17.0966 20.0872 17.6324ZM28.3529 20.4469C28.4511 20.9904 28.0902 21.5106 27.5467 21.6088C26.4407 21.8087 25.164 22.5395 23.8922 23.7444C22.6334 24.9372 21.447 26.5319 20.5142 28.3303C18.6281 31.9663 17.8925 36.1924 19.3455 39.4694C19.5694 39.9743 19.3416 40.5651 18.8367 40.7889C18.3318 41.0128 17.7411 40.785 17.5172 40.2801C15.7173 36.2207 16.7121 31.3167 18.7388 27.4094C19.7624 25.436 21.078 23.6557 22.5167 22.2926C23.9424 20.9417 25.5587 19.9357 27.191 19.6407C27.7345 19.5425 28.2547 19.9034 28.3529 20.4469Z" fill="#86868B"/>
</svg>
