<svg width="45" height="44" viewBox="0 0 45 44" fill="none" xmlns="http://www.w3.org/2000/svg">
<path d="M19.4 7.95691V9.69131C19.4 10.225 17.9547 11.2034 15.5532 11.2034C13.1518 11.2034 11.7064 10.225 11.7064 9.69131V7.95691C12.7293 8.46834 14.0412 8.77964 15.5532 8.77964C17.0653 8.80187 18.3994 8.49057 19.4 7.95691Z" fill="#9E9E9E"/>
<path d="M24.1318 12.181H22.1306V19.5856H24.1318V12.181Z" fill="#86868B"/>
<path d="M15.5724 37.0387C10.7694 37.0387 6.98932 34.8596 6.98932 32.1023V12.179H8.99055V32.1023C8.99055 33.4809 11.7923 35.0375 15.5724 35.0375V37.0387Z" fill="#86868B"/>
<path d="M15.5724 17.1171C10.7472 17.1171 6.98932 14.9602 6.98932 12.1807C6.98932 10.6019 8.21229 9.15661 10.3247 8.24493L11.1252 10.0905C9.79104 10.6686 8.99055 11.4469 8.99055 12.2029C8.99055 13.5816 11.7923 15.1381 15.5724 15.1381C19.3525 15.1381 22.1542 13.5816 22.1542 12.2029C22.1542 11.4691 21.3537 10.6686 20.0196 10.0905L20.8201 8.24493C22.9325 9.15661 24.1554 10.6019 24.1554 12.1807C24.1332 14.9602 20.3753 17.1171 15.5724 17.1171Z" fill="#86868B"/>
<path d="M21.4002 5.28638V9.71132C21.4002 9.88921 21.378 10.0671 21.3335 10.245C20.9333 11.9794 18.5763 13.2024 15.5744 13.2024C12.7949 13.2024 10.5936 12.1573 9.9265 10.6452C9.79309 10.3339 9.72638 10.0226 9.72638 9.68909V5.28638H11.7276V9.71132C11.7276 10.245 13.1952 11.2234 15.5744 11.2234C17.9537 11.2234 19.4212 10.245 19.4212 9.71132V5.28638H21.4002Z" fill="#86868B"/>
<path d="M20.8861 3.798C19.9966 2.57503 17.9954 1.77454 15.5495 1.77454C13.437 1.77454 11.6582 2.37491 10.6353 3.33105C10.035 3.88695 9.70142 4.55402 9.70142 5.28781C9.70142 6.3996 10.4574 7.33351 11.7026 7.97835C12.7255 8.48978 14.0374 8.80108 15.5495 8.80108C17.0393 8.80108 18.3734 8.48978 19.3963 7.97835C20.6415 7.35575 21.3975 6.3996 21.3975 5.28781C21.3975 4.73191 21.2196 4.24272 20.8861 3.798ZM15.5717 6.79985C13.1925 6.79985 11.7249 5.82147 11.7249 5.28781C11.7249 4.75415 13.1925 3.77577 15.5717 3.77577C17.9509 3.77577 19.4185 4.75415 19.4185 5.28781C19.3963 5.82147 17.9509 6.79985 15.5717 6.79985Z" fill="#86868B"/>
<path d="M19.4 5.28841C19.4 5.82207 17.9547 6.80045 15.5532 6.80045C13.1518 6.80045 11.7064 5.82207 11.7064 5.28841C11.7064 4.75475 13.174 3.77637 15.5532 3.77637C17.9325 3.77637 19.4 4.75475 19.4 5.28841Z" fill="#9E9E9E"/>
<path d="M25.2029 18.5859C17.4648 18.5859 11.3944 21.9436 11.3944 26.2351C11.3944 30.5266 17.4648 33.8842 25.2029 33.8842C32.941 33.8842 39.0114 30.5266 39.0114 26.2351C39.0114 21.9436 32.9632 18.5859 25.2029 18.5859ZM35.7872 28.7033C33.8304 30.5711 29.7835 31.883 25.2029 31.883C20.6223 31.883 16.5754 30.5711 14.6186 28.681C13.8404 27.9473 13.3956 27.1023 13.3956 26.2351C13.3956 23.1888 18.799 20.5872 25.2029 20.5872C31.5846 20.5872 37.0102 23.1665 37.0102 26.2351C37.0102 27.1023 36.5655 27.9473 35.7872 28.7033Z" fill="#86868B"/>
<path d="M25.1974 42.0004C19.6162 42.0004 15.8139 39.9325 14.7243 36.3525L12.5674 29.2815L14.4797 28.7034L16.6366 35.7744C17.4371 38.4649 20.5501 39.9992 25.1752 39.9992V42.0004H25.1974Z" fill="#86868B"/>
<path d="M25.2047 41.9998V39.9986C29.8297 39.9986 32.9427 38.4643 33.7432 35.7737L35.9001 28.6805L37.8124 29.2586L35.6555 36.3296C34.5882 39.9319 30.7859 41.9998 25.2047 41.9998Z" fill="#86868B"/>
<path d="M35.7868 28.7033C33.83 30.5711 29.7831 31.883 25.2025 31.883C20.6219 31.883 16.575 30.5711 14.6182 28.6811C16.0413 26.791 19.9993 25.1011 25.2025 25.1011C30.428 25.1233 34.3859 26.791 35.7868 28.7033Z" fill="#9E9E9E"/>
</svg>
