<svg width="20" height="20" viewBox="0 0 20 20" fill="none" xmlns="http://www.w3.org/2000/svg">
<path fill-rule="evenodd" clip-rule="evenodd" d="M1.66675 9.99999C1.66675 9.53975 2.03984 9.16666 2.50008 9.16666H17.5001C17.9603 9.16666 18.3334 9.53975 18.3334 9.99999C18.3334 10.4602 17.9603 10.8333 17.5001 10.8333H2.50008C2.03984 10.8333 1.66675 10.4602 1.66675 9.99999Z" fill="black"/>
<path fill-rule="evenodd" clip-rule="evenodd" d="M1.66675 4.99999C1.66675 4.53975 2.03984 4.16666 2.50008 4.16666H17.5001C17.9603 4.16666 18.3334 4.53975 18.3334 4.99999C18.3334 5.46023 17.9603 5.83332 17.5001 5.83332H2.50008C2.03984 5.83332 1.66675 5.46023 1.66675 4.99999Z" fill="black"/>
<path fill-rule="evenodd" clip-rule="evenodd" d="M1.66675 15C1.66675 14.5398 2.03984 14.1667 2.50008 14.1667H17.5001C17.9603 14.1667 18.3334 14.5398 18.3334 15C18.3334 15.4602 17.9603 15.8333 17.5001 15.8333H2.50008C2.03984 15.8333 1.66675 15.4602 1.66675 15Z" fill="black"/>
</svg>
